<svg xmlns="http://www.w3.org/2000/svg" viewBox="118 -20 540 540" role="img" aria-label="RESPECT">
  <path fill="#00770E" d="M469.331 331.328H398.695C518.764 270.41 634.992 168.028 634.992 0L138 82.832V248.496L303.661 220.896C303.665 244.043 295.454 266.441 280.491 284.101C265.527 301.762 244.782 313.539 221.949 317.336L138 331.328V414.168H220.831C242.799 414.168 263.867 422.895 279.401 438.429C294.934 453.963 303.661 475.032 303.661 497H634.992C634.994 475.244 630.711 453.7 622.386 433.599C614.062 413.499 601.859 395.235 586.476 379.85C571.093 364.466 552.83 352.263 532.73 343.937C512.63 335.612 491.086 331.327 469.331 331.328Z"/>
</svg>
