<svg width="230" height="433" viewBox="0 0 230 433" fill="none" xmlns="http://www.w3.org/2000/svg">
<path d="M4.0752 248.063C14.58 246.976 24.9607 244.454 35.0363 240.541C52.8247 217.928 78.4848 205.592 103.663 207.562C104.161 207.596 104.659 207.643 105.162 207.718C106.768 207.955 108.375 208.49 109.58 210.013C109.956 210.467 110.249 211.019 110.441 211.63C110.632 212.241 110.716 212.898 110.688 213.554C110.522 216.12 108.696 217.42 106.731 218.151C106.165 218.357 105.592 218.527 105.012 218.659L81.9065 224.075C81.0078 224.191 80.1471 224.594 79.4059 225.247C78.7151 225.971 78.3776 227.366 78.9238 228.266C79.395 229.038 80.2626 229.14 81.0283 229.174C88.2733 229.472 97.8314 228.591 107.829 226.797C111.042 226.215 114.346 225.545 117.607 224.766C123.54 223.378 129.414 221.719 134.844 219.824C138.474 218.557 141.906 217.183 145.018 215.728C147.459 214.59 149.708 213.412 151.716 212.173C154.463 210.48 157.355 208.598 160.407 208.909C163.459 209.221 166.512 212.837 165.698 216.56C165.474 217.614 165.004 218.558 164.348 219.269C159.154 224.922 150.586 229.993 141.36 234.001C138.608 235.193 135.797 236.296 132.996 237.285C127.898 239.086 108.171 244.976 107.829 245.003" stroke="#00770E" stroke-width="5.95" stroke-miterlimit="10" stroke-linecap="square"/>
<path d="M173.989 222.924C174.637 225.476 173.941 228.34 172.671 230.48C171.402 232.619 169.614 234.176 167.852 235.632C158.767 242.992 149.059 249.044 138.91 253.675C136.411 254.831 133.892 255.917 131.354 256.932C127.192 258.584 122.99 260.051 118.749 261.333C116.086 262.145 113.409 262.89 110.717 263.567L110.583 263.601" stroke="#00770E" stroke-width="5.95" stroke-miterlimit="10" stroke-linecap="square"/>
<path d="M176.221 235.877C177.603 241.882 173.378 248.206 169.977 251.3C160.264 260.102 149.206 265.891 137.721 270.312C135.257 271.26 132.778 272.14 130.288 272.979C126.508 274.266 122.69 275.437 118.888 276.568C116.982 277.146 115.075 277.71 113.169 278.26" stroke="#00770E" stroke-width="5.95" stroke-miterlimit="10" stroke-linecap="square"/>
<path d="M167.884 261.602C171.065 271.69 152.098 281.913 141.437 286.802C139.997 287.479 138.556 288.101 137.11 288.717C134.533 289.805 131.947 290.823 129.351 291.771C125.849 293.057 122.324 294.22 118.776 295.258C116.209 296.007 113.64 296.702 111.07 297.343C75.9538 306.064 39.1077 304.621 3.05957 303.579" stroke="#00770E" stroke-width="5.95" stroke-miterlimit="10" stroke-linecap="square"/>
<path d="M134.845 219.82C139.54 178.614 146.908 137.967 156.874 98.2891" stroke="#00770E" stroke-width="5.95" stroke-miterlimit="10" stroke-linecap="square"/>
<path d="M133.919 429.199C129.099 383.667 127.574 337.674 129.362 291.791" stroke="#00770E" stroke-width="5.95" stroke-miterlimit="10" stroke-linecap="square"/>
<path d="M145.028 215.724C147.534 205.202 150.946 195.06 155.202 185.48C160.102 174.579 164.718 166.102 169.585 159.014" stroke="#00770E" stroke-width="5.95" stroke-miterlimit="10" stroke-linecap="square"/>
<path d="M152.254 408.335C141.138 370.237 136.592 329.377 137.111 288.74" stroke="#00770E" stroke-width="5.95" stroke-miterlimit="10" stroke-linecap="square"/>
<path d="M118.774 295.279C118.351 339.843 116.739 373.689 116.739 422.342" stroke="#00770E" stroke-width="5.95" stroke-miterlimit="10" stroke-linecap="square"/>
<path d="M117.608 224.762C115.149 171.503 109.074 118.609 99.4502 66.6641" stroke="#00770E" stroke-width="5.95" stroke-miterlimit="10" stroke-linecap="square"/>
<path d="M107.829 226.775C107.492 223.877 107.128 220.999 106.731 218.115" stroke="#00770E" stroke-width="5.95" stroke-miterlimit="10" stroke-linecap="square"/>
<path d="M100.856 411.632C108.23 363.636 109.933 348.721 111.03 299.844C111.03 299.025 111.068 298.192 111.084 297.373" stroke="#00770E" stroke-width="5.95" stroke-miterlimit="10" stroke-linecap="square"/>
<path d="M75.5127 116.896C82.9397 128.549 88.4121 142.137 92.878 156.044C98.2076 172.748 102.319 190.032 105.162 207.682" stroke="#00770E" stroke-width="5.95" stroke-miterlimit="10" stroke-linecap="square"/>
<path d="M99.6491 66.8945C97.6675 65.9618 95.8656 64.5071 94.3626 62.6266C92.8596 60.7461 91.6902 58.4829 90.9317 55.9873C90.2011 53.4781 89.9005 50.8012 90.05 48.1341C90.1996 45.467 90.7957 42.8704 91.799 40.5166C92.1738 39.6567 92.6934 38.7496 93.4645 38.621C94.5836 38.4246 95.3868 39.9207 95.8527 41.2274C98.7871 49.4062 99.5366 58.1537 99.4509 67.1517" stroke="#00770E" stroke-width="5.95" stroke-miterlimit="10" stroke-linecap="square"/>
<path d="M99.4502 68.6419C100.446 64.8234 102.288 61.5194 103.846 58.019C105.405 54.5187 107.595 51.3432 110.406 49.5152C111.346 48.8409 112.41 48.4927 113.49 48.5062C114.031 48.5257 114.558 48.7235 115.019 49.0798C115.48 49.4361 115.859 49.9385 116.119 50.5374C116.805 52.3384 115.98 54.4508 115.14 56.1502C111.353 63.8366 106.924 70.9867 101.929 77.4773" stroke="#00770E" stroke-width="5.95" stroke-miterlimit="10" stroke-linecap="square"/>
<path d="M100.37 68.3033C98.4706 66.5585 96.3115 65.3179 94.0228 64.6558C91.7342 63.9938 89.3633 63.924 87.0528 64.4509C85.6391 64.7826 84.1932 65.392 83.208 66.7191C81.7354 68.7096 81.7033 71.9933 82.8171 74.3359C83.9309 76.6785 85.9658 78.1408 88.0756 78.7298C90.1998 79.2034 92.3717 79.2242 94.5013 78.791C96.627 78.3568 98.7742 78.1124 100.927 78.0597" stroke="#00770E" stroke-width="5.95" stroke-miterlimit="10" stroke-linecap="square"/>
<path d="M106.255 103.415C107.132 95.3452 110.456 88.0229 115.524 82.9952C116.245 82.2059 117.093 81.6238 118.009 81.289C118.468 81.1284 118.952 81.1225 119.414 81.2722C119.875 81.4218 120.297 81.7217 120.638 82.1419C121.768 83.733 121.003 86.2383 120.103 88.046C116.549 95.1714 111.632 101.049 105.806 105.135" stroke="#00770E" stroke-width="5.95" stroke-miterlimit="10" stroke-linecap="square"/>
<path d="M106.01 102.413C102.374 97.247 95.0807 93.232 89.6081 93.2184C88.3172 93.1407 87.0308 93.4616 85.8598 94.153C85.2758 94.5105 84.7765 95.0557 84.4118 95.7342C84.0472 96.4128 83.8301 97.2008 83.7822 98.019C83.7822 100.402 85.5331 102.156 87.2359 103.185C92.6602 106.455 100.179 105.893 105.512 102.399" stroke="#00770E" stroke-width="5.95" stroke-miterlimit="10" stroke-linecap="square"/>
<path d="M108.55 114.682C112.857 106.98 118.616 100.757 125.305 96.5777C126.858 95.6095 128.919 94.8446 130.151 96.3747C131.002 97.4241 131.04 99.2047 130.542 100.566C129.972 101.887 129.172 103.026 128.201 103.897C122.325 109.874 115.375 113.931 107.966 115.711" stroke="#00770E" stroke-width="5.95" stroke-miterlimit="10" stroke-linecap="square"/>
<path d="M110.512 139.227C107.835 132.26 102.153 126.363 96.6217 123.011C95.5618 122.3 94.4005 121.862 93.2054 121.725C92.606 121.664 92.0035 121.78 91.4458 122.064C90.8881 122.349 90.3907 122.793 89.9926 123.363C89.1626 124.717 89.141 126.586 89.5319 128.204C90.5493 132.429 93.8157 135.07 97.0285 136.796C101.333 139.109 105.922 140.461 110.592 140.791" stroke="#00770E" stroke-width="5.95" stroke-miterlimit="10" stroke-linecap="square"/>
<path d="M111.138 145.392C112.61 141.397 115.218 138.303 117.751 135.277C120.261 132.164 123.498 130.16 126.982 129.563C127.711 129.468 128.589 129.508 129.012 130.24C129.644 131.296 128.942 132.772 128.225 133.74C124.016 139.427 117.247 143.936 111.298 145.968" stroke="#00770E" stroke-width="5.95" stroke-miterlimit="10" stroke-linecap="square"/>
<path d="M112.163 159.367C109.272 154.417 105.106 150.9 100.382 149.421C99.247 149.069 97.8976 148.913 97.0569 149.942C96.2162 150.971 96.2965 152.441 96.6017 153.727C97.4585 157.322 100.243 159.766 103.14 160.612C106.037 161.459 109.062 160.978 112.002 160.437" stroke="#00770E" stroke-width="5.95" stroke-miterlimit="10" stroke-linecap="square"/>
<path d="M97.6663 207.013C92.0672 189.24 83.6251 173.121 72.8687 159.666C72.8533 159.636 72.8331 159.611 72.8096 159.592" stroke="#00770E" stroke-width="5.95" stroke-miterlimit="10" stroke-linecap="square"/>
<path d="M47.4565 133.138L47.0711 132.143L62.6587 135.758L70.0966 124.215C71.5584 130.254 74.2678 135.725 75.6119 141.818C76.9131 147.675 76.6293 154.723 73.2451 158.927C72.1309 160.816 70.6572 162.318 68.9608 163.293C67.2644 164.269 65.4004 164.686 63.5422 164.506C60.3615 164.154 57.363 162.475 54.509 160.62C52.1368 159.11 46.5623 157.438 43.4619 157.296C47.6226 152.191 50.6534 150.525 53.7324 149.57C51.6405 144.091 49.5485 138.613 47.4565 133.138Z" stroke="#00770E" stroke-width="5.95" stroke-miterlimit="10" stroke-linecap="square"/>
<path d="M222.468 138.487L223.057 139.036C211.579 140.036 200.505 144.804 190.929 152.868C187.416 155.833 184.042 159.286 180.016 160.891C175.989 162.496 170.988 161.758 168.45 157.506C166.768 154.669 166.484 150.816 167.03 147.35C167.577 143.883 168.862 140.668 170.083 137.472C175.689 122.797 180.225 107.507 183.636 91.791L186.747 97.4646C188.573 101.391 189.751 105.744 190.211 110.261L195.566 96.8216C196.034 102.443 196.154 108.103 195.925 113.748C201.987 108.658 208.789 105.142 215.935 103.402L205.461 123.971C209.368 124.096 213.225 125.112 216.846 126.971L206.136 128.819C212.005 130.742 217.542 134.02 222.468 138.487Z" stroke="#00770E" stroke-width="5.95" stroke-miterlimit="10" stroke-linecap="square"/>
<path d="M162.693 98.3576C169.499 98.8316 175.988 93.503 179.753 86.3195C183.517 79.1359 184.915 70.3545 185.322 61.7492C186.178 43.374 182.88 25.1343 179.598 7.19922C174.243 14.2947 168.235 20.4829 162.543 27.118C156.851 33.7532 151.437 40.9569 147.694 49.5216C143.951 58.0863 141.996 68.2082 143.565 77.7885C145.134 87.3688 150.65 96.1705 158.103 98.7772" stroke="#00770E" stroke-width="5.95" stroke-miterlimit="10" stroke-linecap="square"/>
<path d="M164.364 26.0625C167.206 36.7076 168.168 48.0114 167.181 59.1772C171.013 49.438 176.721 41.0747 183.781 34.8576" stroke="#00770E" stroke-width="5.95" stroke-miterlimit="10" stroke-linecap="square"/>
<path d="M148.951 131.33C146.702 131.438 144.833 129.211 143.457 126.95C140.691 122.342 138.76 117.022 137.801 111.366C136.841 105.711 136.877 99.8572 137.904 94.2207C139.12 101.167 143.259 106.604 145.829 112.935C148.069 118.499 149.066 124.73 148.715 130.958L148.753 130.233" stroke="#00770E" stroke-width="5.95" stroke-miterlimit="10" stroke-linecap="square"/>
<path d="M148.286 138.174C150.518 133.981 153.406 130.411 156.771 127.682C160.136 124.954 163.907 123.126 167.852 122.311C165.105 124.193 163.933 128.289 162.128 131.519C160.564 134.261 158.475 136.456 156.057 137.898C153.639 139.34 150.97 139.983 148.302 139.765" stroke="#00770E" stroke-width="5.95" stroke-miterlimit="10" stroke-linecap="square"/>
<path d="M155.872 184.045C166.389 175.826 180.504 171.357 192.675 173.97C187.321 179.014 181.837 184.126 175.54 186.902C169.243 189.678 161.816 189.766 156.236 185.108" stroke="#00770E" stroke-width="5.95" stroke-miterlimit="10" stroke-linecap="square"/>
<path d="M74.7291 117.39L75.3611 117.33C77.9903 109.686 80.5497 101.818 81.0103 93.5042C81.2084 89.8684 80.8656 85.8197 78.7719 83.3484C76.0356 80.0783 71.3556 80.9989 68.4747 84.0592C65.4653 87.2481 63.934 92.1025 62.4561 96.6726C58.9166 96.2596 55.1789 96.5574 52.0946 98.8053C49.0103 101.053 46.788 105.698 47.5805 110.106C48.2819 114.032 51.163 116.876 54.2206 117.98C57.2781 119.083 60.539 118.792 63.7197 118.48L74.7291 117.39Z" stroke="#00770E" stroke-width="5.95" stroke-miterlimit="10" stroke-linecap="square"/>
<path d="M66.7667 84.7283C65.1119 83.3683 63.1722 82.6678 61.1989 82.7173C59.2256 82.7668 57.3094 83.5641 55.6985 85.006C54.1319 86.5241 52.9613 88.6015 52.3379 90.9695C51.7146 93.3375 51.6673 95.8874 52.202 98.2898" stroke="#00770E" stroke-width="5.95" stroke-miterlimit="10" stroke-linecap="square"/>
</svg>
