<svg width="346" height="428" viewBox="0 0 346 428" fill="none" xmlns="http://www.w3.org/2000/svg">
<path d="M53.2539 92.4536C54.7986 96.771 57.9734 100.311 62.0978 102.315C64.1555 103.281 66.4227 103.718 68.692 103.584C70.9613 103.451 73.1613 102.752 75.0918 101.552C78.7688 99.1175 80.7957 94.939 82.9612 91.1021C87.0235 83.9368 92.2708 76.9751 93.0193 68.7706C93.4824 62.6849 91.5881 56.6538 87.7288 51.9256C83.8473 47.2441 78.5761 43.9199 72.6789 42.4349C66.8866 40.8602 60.7401 41.2021 55.158 43.4089C49.6569 45.6835 45.8348 56.1116 45.2897 61.3511C44.3014 70.8854 46.8666 79.7511 37.7393 86.662" stroke="#00770E" stroke-width="5.37" stroke-miterlimit="10"/>
<path d="M41.6517 82.3066C37.7348 83.7164 17.823 86.2238 10.6141 94.8787C5.67259 100.809 3.34743 108.562 2.71521 116.258C2.08298 123.954 11.4356 166.771 12.373 174.394" stroke="#00770E" stroke-width="5.37" stroke-miterlimit="10"/>
<path d="M88.9805 82.3066C114.081 106.084 139.247 132.449 163.177 157.418" stroke="#00770E" stroke-width="5.37" stroke-miterlimit="10"/>
<path d="M86.6933 97.0742C80.3129 117.49 73.9371 137.903 67.5664 158.313" stroke="#00770E" stroke-width="5.37" stroke-miterlimit="10"/>
<path d="M86.6914 112.756C107.271 129.39 127.248 147.282 148.461 161.83" stroke="#00770E" stroke-width="5.37" stroke-miterlimit="10"/>
<path d="M58.4533 100.824C56.8587 103.056 55.7381 105.591 55.1611 108.273" stroke="#00770E" stroke-width="5.37" stroke-miterlimit="10"/>
<path d="M53.7525 182.608C60.4018 182.005 64.1296 182.099 66.535 176.467C68.9403 170.835 68.2717 164.426 67.5668 158.351C66.9709 153.198 66.3531 147.981 64.362 143.199C62.3708 138.417 58.7885 134.043 53.9051 132.298C49.4359 130.722 44.5087 131.514 39.8796 132.509C33.3393 133.912 32.4384 134.689 26.9882 138.592C21.538 142.494 18.4277 150.059 18.6748 156.759C18.98 164.913 20.855 172.696 30.5418 177.768C33.0344 180.748 31.8789 182.855 31.3775 186.089" stroke="#00770E" stroke-width="5.37" stroke-miterlimit="10"/>
<path d="M56.311 182.381C55.4971 189.866 58.0984 190.578 61.7101 191.566" stroke="#00770E" stroke-width="5.37" stroke-miterlimit="10"/>
<path d="M69.3633 168.632C85.5321 166.343 132.143 163.219 148.457 162.499C164.771 161.78 166.726 149.201 181.23 151.185C181.23 151.185 193.461 152.863 192.857 161.307C186.513 160.973 182.727 163.153 177.429 167.761" stroke="#00770E" stroke-width="5.37" stroke-miterlimit="10"/>
<path d="M67.0586 186.996C74.3256 213.077 79.7253 270.385 83.8166 310.215" stroke="#00770E" stroke-width="5.37" stroke-miterlimit="10"/>
<path d="M69.3633 194.497C99.2887 187.957 155.971 166.665 166.24 176.678C169.873 180.188 177.976 174.055 182.568 172.027" stroke="#00770E" stroke-width="5.37" stroke-miterlimit="10"/>
<path d="M295.881 91.0578C290.726 96.4875 283.88 100.005 276.464 101.035C273.346 101.457 269.822 101.29 267.554 99.1097C265.701 97.322 265.135 94.6114 264.721 92.068C263.849 86.7679 263.214 81.4388 262.817 76.0806C262.395 70.4414 262.279 64.5697 264.531 59.3666C266.757 54.5333 270.596 50.6254 275.388 48.3135C280.167 46.0368 285.408 44.8975 290.7 44.9852C296.427 44.9852 300.932 46.1408 305.277 49.8687C309.747 53.7057 312.588 61.4956 312.145 67.3964C311.687 73.537 310.081 77.7954 305.8 82.2501C303.601 85.5925 302.52 89.5467 302.712 93.543" stroke="#00770E" stroke-width="5.37" stroke-miterlimit="10"/>
<path d="M262.313 75.8555C249.675 79.2492 239.378 88.2528 230.105 97.4818C223.216 104.342 216.611 111.471 210.012 118.607L179.847 151.2" stroke="#00770E" stroke-width="5.37" stroke-miterlimit="10"/>
<path d="M253.014 101.74C252.847 104.349 252.621 106.827 252.353 109.218C251.03 120.62 248.544 130.183 246.284 143.322" stroke="#00770E" stroke-width="5.37" stroke-miterlimit="10"/>
<path d="M243.722 161.605C243.148 166.838 242.661 172.608 242.269 179.09" stroke="#00770E" stroke-width="5.37" stroke-miterlimit="10"/>
<path d="M194.823 153.647C212.344 137.718 233.018 122.224 252.515 109.107" stroke="#00770E" stroke-width="5.37" stroke-miterlimit="10"/>
<path d="M305.283 83.3691C311.308 87.3078 317.528 91.45 321.605 97.2999" stroke="#00770E" stroke-width="5.37" stroke-miterlimit="10"/>
<path d="M217.714 58.6466C215.142 59.6567 212.482 60.1 209.96 58.901C206.647 57.3458 202.308 53.6034 200.433 50.4641C197.178 45.0211 196.008 38.7716 194.736 32.5511C193.464 26.3305 193.821 19.6446 196.633 13.9546C200.019 7.10909 209.336 1.83355 217.22 2.80005C224.567 3.52675 229.69 6.01904 233.164 11.0478C237.059 16.7088 237.073 24.361 236.07 31.1484C235.068 37.9358 233.891 43.3859 229.756 48.8798C227.343 52.0845 224.575 55.1441 221.036 57.0626C219.963 57.6597 218.853 58.1886 217.714 58.6466Z" stroke="#00770E" stroke-width="5.37" stroke-miterlimit="10"/>
<path d="M166.379 114.871C166.379 107.204 167.832 94.102 169.06 86.1737C169.976 80.3092 170.914 74.3648 173.13 68.8564C175.346 63.348 178.987 58.1885 184.183 55.289C188.725 52.7601 194.175 52.0695 198.448 49.1191" stroke="#00770E" stroke-width="5.37" stroke-miterlimit="10"/>
<path d="M188.925 79.3574C188.925 79.5754 182.188 126.716 177.581 150.69" stroke="#00770E" stroke-width="5.37" stroke-miterlimit="10"/>
<path d="M231.394 48.9668C237.992 50.6673 245.12 52.7165 249.161 58.2031C251.276 61.2956 252.487 64.9173 252.657 68.6604C252.81 72.386 252.618 76.1177 252.082 79.8078C252.388 79.6988 252.235 79.1176 251.915 79.1684" stroke="#00770E" stroke-width="5.37" stroke-miterlimit="10"/>
<path d="M312.187 61.1102C317.855 61.4881 325.122 57.8399 327.382 52.6368C328.461 49.9959 328.796 47.1107 328.353 44.2929C327.909 41.4751 326.705 38.8319 324.868 36.6494C322.982 34.5139 320.599 32.8753 317.93 31.878C315.262 30.8806 312.388 30.5554 309.564 30.9306C306.748 31.3532 304.059 32.3863 301.686 33.958C299.312 35.5297 297.311 37.6019 295.822 40.0288" stroke="#00770E" stroke-width="5.37" stroke-miterlimit="10"/>
<path d="M103.512 45.254C103.265 41.0699 103.989 36.8852 105.628 33.0275C107.267 29.1698 109.776 25.7437 112.959 23.0169C116.191 20.3487 120.039 18.5315 124.153 17.7306C128.266 16.9297 132.515 17.1706 136.512 18.4314C144.433 21.0911 150.704 28.3145 151.947 36.5989C153.4 46.2858 148.313 55.7547 142.311 63.4867C139.177 67.5358 135.75 71.3492 132.057 74.896C130 76.8727 127.791 78.8055 125.102 79.7647C120.015 81.5815 114.1 79.3796 110.38 75.4482C106.659 71.5167 104.798 66.1754 103.781 60.856" stroke="#00770E" stroke-width="5.37" stroke-miterlimit="10"/>
<path d="M145.309 59.7383C151.42 62.0492 154.545 68.7059 156.783 74.8393C160.751 85.7398 171.498 139.283 173.642 150.692" stroke="#00770E" stroke-width="5.37" stroke-miterlimit="10"/>
<path d="M141.548 90.3887C139.978 114.857 137.187 116.811 135.879 129.027" stroke="#00770E" stroke-width="5.37" stroke-miterlimit="10"/>
<path d="M141.168 95.5781C146.618 113.019 154.975 137.087 160.403 154.535" stroke="#00770E" stroke-width="5.37" stroke-miterlimit="10"/>
<path d="M155.886 174.432C155.811 176.218 156.345 177.976 157.402 179.418C158.458 180.861 159.974 181.9 161.699 182.367C163.443 182.744 165.264 182.519 166.862 181.727C168.461 180.935 169.744 179.623 170.5 178.007" stroke="#00770E" stroke-width="5.37" stroke-miterlimit="10"/>
<path d="M173.083 177.482C175.329 194.494 174.536 211.637 173.642 228.758C173.017 240.865 173.817 253.074 169.145 264.199" stroke="#00770E" stroke-width="5.37" stroke-miterlimit="10"/>
<path d="M190.677 161.301C190.037 180.675 192.384 201.996 195.262 221.181C198.139 240.366 200.756 259.761 199.012 279.07C197.267 298.378 190.792 317.81 177.581 331.988" stroke="#00770E" stroke-width="5.37" stroke-miterlimit="10"/>
<path d="M186.473 320.139C186.589 325.16 186.342 332.652 186.473 337.659C186.531 340.101 186.575 342.608 185.746 344.89C184.642 347.797 182.185 350.013 179.722 351.946C158.241 368.907 129.311 376.4 102.488 371.204" stroke="#00770E" stroke-width="5.37" stroke-miterlimit="10"/>
<path d="M155.035 245.504C155.085 248.953 155.524 252.385 156.343 255.736C157.07 258.606 157.658 264.216 160.187 265.764C163.523 267.806 168.762 264.514 172.541 263.511C176.32 262.508 180.091 261.026 183.994 261.251L183.158 261.157" stroke="#00770E" stroke-width="5.37" stroke-miterlimit="10"/>
<path d="M128.064 252.893C129.256 261.017 133.594 270.849 129.074 277.709C125.513 283.116 115.936 285.121 110.101 287.948C99.8832 292.897 89.4335 299.096 84.2958 309.219C80.2408 317.212 80.0589 326.587 80.9454 335.489C81.8756 344.842 79.7102 355.146 81.12 364.797C81.6214 368.779 83.3944 370.611 84.9714 372.827C89.3969 379.084 94.5055 376.417 98.2407 374.658C102.274 372.762 104.701 368.212 105.799 363.888C108.451 353.475 108.088 342.414 108.458 331.674" stroke="#00770E" stroke-width="5.37" stroke-miterlimit="10"/>
<path d="M129.057 263.024C127.032 261.873 125.209 260.401 123.658 258.664C120.075 254.652 116.391 248.919 114.879 243.752C112.75 236.485 108.869 225.17 109.654 217.591C110.439 210.011 114.291 201.473 122.902 197.548C134.188 192.403 144.957 194.642 151.97 197.548C156.861 199.554 159.52 203.326 161.024 208.384C163.8 217.722 163.103 221.929 162.703 226.805C161.867 237.081 158.343 251.433 156.591 253.882" stroke="#00770E" stroke-width="5.37" stroke-miterlimit="10"/>
<path d="M23.0618 172.693C13.6801 178.507 12.3866 191.551 12.3721 201.558C12.3721 211.986 15.7002 222.531 18.6288 232.421C24.6023 252.522 35.3429 274.322 42.261 294.132C45.7928 304.306 42.988 306.268 46.5052 316.413C50.6183 328.2 56.6208 338.446 61.7658 349.841C62.0783 350.567 62.6597 359.288 63.2774 359.738C64.1712 360.378 65.3844 360.284 66.4744 360.124C71.3501 359.421 76.1122 358.079 80.6379 356.134" stroke="#00770E" stroke-width="5.37" stroke-miterlimit="10"/>
<path d="M266.66 238.003C269.131 233.854 271.609 228.556 269.014 224.487C267.51 222.14 264.727 221.006 262.097 220.076C256.007 217.932 249.016 215.432 246.742 209.386C245.128 205.07 246.538 200.244 248.333 196.007C251.392 188.791 255.68 181.96 261.689 176.932C267.699 171.903 275.569 168.807 283.367 169.549C294.689 170.617 304.55 180.449 305.669 191.749C306.788 203.049 299.035 214.626 288.141 217.91" stroke="#00770E" stroke-width="5.37" stroke-miterlimit="10"/>
<path d="M304.921 200.193C314.15 216.384 312.369 236.659 307.195 254.565C296.724 290.813 277.299 323.688 259.364 356.891C255.861 363.373 252.308 370.364 252.94 377.704C253.144 380.059 253.739 382.58 252.635 384.658C251.182 387.398 247.548 387.994 244.467 388.059C232.847 388.285 221.355 385.6 211.039 380.247C207.056 378.184 202.805 374.877 203.002 370.393C203.198 365.91 207.943 362.923 212.347 362.937C216.751 362.952 220.501 361.891 224.338 364.049" stroke="#00770E" stroke-width="5.37" stroke-miterlimit="10"/>
<path d="M260.794 267.115C255.409 277.144 256.433 289.214 255.183 300.543C253.482 315.447 247.606 329.566 238.23 341.275C236.231 343.76 233.942 346.791 234.981 349.799C235.708 351.928 238.041 353.222 240.293 353.323C242.546 353.425 244.733 352.597 246.724 351.507C254.631 347.314 268.446 331.021 271.389 313.559" stroke="#00770E" stroke-width="5.37" stroke-miterlimit="10"/>
<path d="M270.106 228.803C257.142 238.25 246.794 257.362 241.184 272.361C235.574 287.36 232.18 303.071 228.431 318.637C226.033 328.571 223.474 338.549 223.046 348.759C222.617 358.969 224.499 369.578 230.313 377.986" stroke="#00770E" stroke-width="5.37" stroke-miterlimit="10"/>
<path d="M191.956 161.156C212.304 169.964 233.756 177.413 255.375 182.267" stroke="#00770E" stroke-width="5.37" stroke-miterlimit="10"/>
<path d="M190.987 177.25C208.543 186.558 226.759 194.561 245.49 201.195" stroke="#00770E" stroke-width="5.37" stroke-miterlimit="10"/>
<path d="M336.684 134.523C339.38 131.605 341.257 128.026 342.123 124.148C342.99 120.271 342.816 116.234 341.619 112.446C340.329 108.687 338.07 105.336 335.071 102.73C332.071 100.125 328.436 98.3572 324.534 97.6065C320.616 96.9517 316.594 97.3396 312.873 98.7313C309.152 100.123 305.863 102.469 303.336 105.535C299.223 110.658 297.581 117.336 296.861 123.869C296.324 128.745 296.229 133.665 296.135 138.57C296.135 140.656 296.135 143.018 297.683 144.449C298.867 145.561 300.589 145.794 302.209 145.968C305.472 146.324 304.608 146.222 305.771 146.397" stroke="#00770E" stroke-width="5.37" stroke-miterlimit="10"/>
<path d="M337.264 133.816C333.02 138.525 328.827 140.698 329.445 146.977C335.825 156.323 342.525 166.503 342.256 177.825C342.111 184.475 339.546 190.812 336.719 196.829C328.827 213.63 317.977 230.439 309.221 246.804" stroke="#00770E" stroke-width="5.37" stroke-miterlimit="10"/>
<path d="M296.327 132.32C262.485 140.365 223.927 148.845 189.612 154.535" stroke="#00770E" stroke-width="5.37" stroke-miterlimit="10"/>
<path d="M203.987 166.149C233.782 163.242 262.559 159.361 292.143 154.521" stroke="#00770E" stroke-width="5.37" stroke-miterlimit="10"/>
<path d="M294.441 149.326C292.344 156.143 290.884 163.139 290.081 170.226" stroke="#00770E" stroke-width="5.37" stroke-miterlimit="10"/>
<path d="M319.218 182.105C315.018 190.157 311.137 203.718 308.564 208.354" stroke="#00770E" stroke-width="5.37" stroke-miterlimit="10"/>
<path d="M182.326 349.625C179.34 370.169 174.841 393.285 173.402 413.633" stroke="#00770E" stroke-width="5.37" stroke-miterlimit="10"/>
<path d="M146.582 368.904C150.942 385.4 155.106 403.001 157.925 419.831C160.411 423.639 162.285 424.388 165.919 424.671C169.146 424.911 173.186 422.244 175.112 419.628C177.038 417.012 177.292 413.517 177.474 410.254L177.888 402.892C178.012 400.712 177.161 395.451 175.213 394.506" stroke="#00770E" stroke-width="5.37" stroke-miterlimit="10"/>
<path d="M100.18 373.656L98.2617 407.353" stroke="#00770E" stroke-width="5.37" stroke-miterlimit="10"/>
<path d="M136.86 371.221C132.653 379.352 127.558 388.872 123.35 397.004C120.109 403.283 118.453 405.499 115.728 412.025C115.248 413.18 114.15 418.681 113.264 419.561C111.592 421.218 107.901 420.963 105.721 421.341C103.359 421.748 100.714 421.9 98.6716 420.403C96.4915 418.812 94.5512 412.279 93.919 409.757C92.749 405.107 92.5749 404.256 91.5139 399.584C90.7872 396.415 90.104 393.087 90.976 389.962C91.848 386.837 94.8202 384.032 98.0322 384.534" stroke="#00770E" stroke-width="5.37" stroke-miterlimit="10"/>
</svg>
