<svg width="220" height="457" viewBox="0 0 220 457" fill="none" xmlns="http://www.w3.org/2000/svg">
<path d="M49.4312 70.5684C49.6031 71.2035 49.6168 71.8897 49.4701 72.5348C49.3234 73.1799 49.0236 73.753 48.6106 74.1777C47.7638 75.0116 46.7856 75.6097 45.741 75.932L27.7487 83.3671C21.4069 85.9802 14.7091 88.9041 10.5022 95.4154C5.6182 102.973 5.23945 113.505 5.08449 123.25L4.03418 189.821C4.4187 201.335 4.87803 215.13 6.3817 235.71C7.05318 244.871 2.61679 256.248 8.10345 273.883C8.21823 274.258 9.30858 275.954 9.43484 276.337" stroke="#00770E" stroke-width="5" stroke-miterlimit="10"/>
<path d="M22.2256 121.936C30.7483 137.86 39.5867 155.041 39.6441 174.235C39.6728 182.695 37.9568 190.99 36.522 199.262C33.0153 219.474 31.1155 240.012 29.2216 260.542C27.4023 280.256 24.6304 296.851 22.8054 316.566" stroke="#00770E" stroke-width="5" stroke-miterlimit="10"/>
<path d="M23.1158 123.328C22.5074 162.251 20.8796 201.124 18.2319 239.946C18.2319 240.162 19.0353 241.195 19.1443 241.39C19.8966 242.863 20.4765 244.465 20.8661 246.147C21.4057 248.466 21.7104 250.863 21.7729 253.279C21.882 256.585 21.3309 259.848 21.5375 263.147C21.5914 263.433 21.596 263.731 21.5504 264.02C21.5049 264.309 21.4103 264.582 21.2735 264.821C21.1573 264.944 21.0229 265.037 20.8781 265.094C20.7333 265.151 20.5811 265.171 20.43 265.153C19.9805 265.067 19.56 264.82 19.2183 264.443C18.8766 264.066 18.628 263.574 18.5018 263.024C18.2091 261.948 18.387 260.779 18.3583 259.646C18.3235 258.371 18.2256 257.101 18.0654 255.841" stroke="#00770E" stroke-width="5" stroke-miterlimit="10"/>
<path d="M43.3779 175.577C54.357 177.577 68.6302 185.308 80.5103 195.14C80.4586 177.288 80.7342 161.169 86.3299 144.761C88.3673 138.769 89.0904 136.264 90.9212 130.165C92.9596 123.064 93.9137 115.542 93.7334 107.996" stroke="#00770E" stroke-width="5" stroke-miterlimit="10"/>
<path d="M26.5517 323.697C22.7904 340.269 21.1192 357.481 21.5989 374.705C21.9662 387.857 23.5845 400.901 24.3191 414.032C24.961 426.668 24.8651 439.347 24.0321 451.966" stroke="#00770E" stroke-width="5" stroke-miterlimit="10"/>
<path d="M52.8928 323.682L53.3633 321.906C44.3455 353.665 39.7517 387.143 39.7844 420.867C39.7897 423.207 40.3155 425.499 41.3024 427.482C42.2892 429.466 43.6977 431.063 45.3686 432.092C56.4452 438.95 67.298 446.342 77.9269 454.268" stroke="#00770E" stroke-width="5" stroke-miterlimit="10"/>
<path d="M64.6436 321.004C71.2379 336.611 69.7227 355.488 72.8334 372.719C75.3758 386.788 80.983 399.615 85.6891 412.768C90.3952 425.92 94.1545 438.437 92.955 452.788" stroke="#00770E" stroke-width="5" stroke-miterlimit="10"/>
<path d="M89.2842 316.564C91.8654 348.745 96.2477 380.656 102.398 412.06C103.51 418.156 105.529 423.931 108.35 429.082C109.134 430.71 110.226 432.069 111.529 433.038C113.079 434.178 114.703 435.138 116.321 436.098C122.996 440.054 142.32 453.647 143.984 454.499" stroke="#00770E" stroke-width="5" stroke-miterlimit="10"/>
<path d="M41.0334 189.43L80.6738 200.85C82.0418 239.495 84.9881 278.026 89.5008 316.291C67.2134 320.331 44.7584 322.741 22.249 323.51" stroke="#00770E" stroke-width="5" stroke-miterlimit="10"/>
<path d="M14.292 258.975C14.097 264.396 14.8148 269.808 16.3983 274.856L16.6222 275.368C16.869 275.96 17.3568 276.018 17.879 276.09C18.1449 276.122 18.4127 276.073 18.6603 275.947C18.908 275.821 19.1283 275.623 19.3023 275.368C19.8763 274.495 19.8131 273.203 19.6753 272.062C19.3425 269.254 18.8777 269.131 18.4759 262.779" stroke="#00770E" stroke-width="5" stroke-miterlimit="10"/>
<path d="M11.7641 259.219C11.6431 263.567 12.0023 267.916 12.8315 272.14C13.4456 275.627 14.6336 278.132 15.7986 277.792" stroke="#00770E" stroke-width="5" stroke-miterlimit="10"/>
<path d="M9.26454 259.199C8.81231 263.895 9.10307 268.657 10.1198 273.211C10.3167 274.266 10.6542 275.272 11.1183 276.185C11.3535 276.638 11.6604 277.026 12.0198 277.324C12.3792 277.622 12.7834 277.824 13.2074 277.917" stroke="#00770E" stroke-width="5" stroke-miterlimit="10"/>
<path d="M8.14355 273.889C8.45336 274.81 8.9059 275.644 9.47494 276.343" stroke="#00770E" stroke-width="5" stroke-miterlimit="10"/>
<path d="M72.2217 76.752C78.0986 79.7838 84.6067 80.0654 90.8566 81.5019C97.1066 82.9384 103.638 85.9773 107.127 92.6546C109.498 97.1879 110.135 102.761 110.714 108.131C112.52 124.85 114.326 141.571 116.132 158.294L117.481 170.833C117.894 174.623 119.202 178.131 120.293 181.726C122.589 189.397 125.001 197.017 127.53 204.587C129.956 211.888 132.485 219.128 135.117 226.308C138.287 226.78 141.33 228.153 144.015 230.325C146.7 232.496 148.956 235.408 150.613 238.84C150.749 239.122 150.82 239.446 150.818 239.775C150.816 240.105 150.74 240.427 150.6 240.706C150.459 240.984 150.26 241.208 150.024 241.352C149.788 241.495 149.525 241.553 149.264 241.518C148.494 241.347 147.764 240.96 147.129 240.385C145.213 238.821 143.61 236.721 142.446 234.249" stroke="#00770E" stroke-width="5" stroke-miterlimit="10"/>
<path d="M92.4873 123.992C94.3841 142.055 97.5806 159.865 102.037 177.201C107.662 197.146 115.237 215.814 125.568 232.496C126.378 236.272 127.459 239.947 128.799 243.476C130.108 246.923 131.973 249.991 134.274 252.485" stroke="#00770E" stroke-width="5" stroke-miterlimit="10"/>
<path d="M82.8928 25.3208C81.2973 26.0859 80.3331 26.1726 77.1536 26.2664C74.4275 26.3458 71.466 27.4789 69.7327 30.1282C68.2463 32.402 67.7355 35.4123 67.2936 38.307C65.6637 48.9545 64.2692 59.8909 60.1829 69.4485L36.4228 71.1664C33.5079 63.5245 31.2843 55.4955 29.7939 47.2295C28.7846 42.1478 28.3329 36.9162 28.451 31.6805C28.6691 26.4541 29.7709 21.206 32.1125 16.8748C35.3781 10.8327 40.7615 7.06451 46.317 4.90613C51.7829 2.80538 57.5227 2.0697 63.2131 2.74052C68.4587 3.34689 73.7388 5.2454 77.9169 9.23733C81.5039 12.6951 84.1153 17.5824 85.8313 22.8376C87.459 28.1492 88.5016 33.7158 88.9304 39.3827C89.7531 48.351 89.7376 57.4094 88.8844 66.3731C88.7217 66.8136 88.4498 67.1759 88.1096 67.4055C87.5683 67.7212 86.9837 67.9028 86.3878 67.9399L78.485 69.0227C77.3529 69.064 76.2451 69.4452 75.2539 70.1344C74.4672 70.8738 73.835 71.8421 73.4116 72.9566C72.3828 75.3026 71.6564 77.8391 71.2594 80.4714" stroke="#00770E" stroke-width="5" stroke-miterlimit="10"/>
<path d="M149.988 241.873C150.518 242.392 150.989 242.999 151.388 243.678C151.584 244.021 151.722 244.41 151.793 244.823C151.864 245.235 151.867 245.661 151.801 246.075C151.635 246.677 151.316 247.193 150.892 247.543C150.469 247.893 149.965 248.057 149.46 248.009C148.445 247.892 147.49 247.354 146.745 246.479C145.97 245.663 145.305 244.696 144.518 243.902C143.732 243.108 142.71 242.415 142.056 241.361C141.402 240.307 141.195 238.625 141.97 237.708C142.094 237.552 142.245 237.434 142.411 237.363C142.578 237.291 142.754 237.269 142.929 237.297" stroke="#00770E" stroke-width="5" stroke-miterlimit="10"/>
<path d="M141.04 240.308C140.699 240.168 140.33 240.18 139.995 240.343C139.66 240.506 139.381 240.81 139.204 241.203C139.035 241.602 138.941 242.043 138.927 242.494C138.913 242.945 138.98 243.395 139.124 243.809C139.416 244.629 139.838 245.366 140.363 245.975C141.942 247.967 143.962 250.248 146.103 251.107C146.857 251.424 147.679 251.362 148.398 250.934C149.236 250.522 149.5 249.014 149.098 248.003" stroke="#00770E" stroke-width="5" stroke-miterlimit="10"/>
<path d="M138.14 244.277C137.788 244.278 137.449 244.444 137.19 244.743C136.93 245.042 136.77 245.453 136.74 245.894C136.713 246.785 136.914 247.663 137.314 248.399C138.429 250.829 140.077 252.803 142.06 254.087C142.919 254.69 143.883 255.017 144.866 255.041C145.357 255.047 145.842 254.905 146.279 254.626C146.717 254.347 147.094 253.939 147.38 253.438C147.517 253.187 147.611 252.905 147.659 252.607C147.706 252.309 147.705 252.003 147.656 251.705" stroke="#00770E" stroke-width="5" stroke-miterlimit="10"/>
<path d="M135.277 247.82C134.577 248.095 134.273 249.156 134.284 250.08C134.371 251.751 134.967 253.315 135.949 254.447C136.927 255.561 138.027 256.495 139.214 257.219C139.852 257.701 140.548 258.047 141.275 258.244C141.638 258.34 142.015 258.329 142.374 258.212C142.734 258.094 143.067 257.873 143.347 257.566C143.616 257.244 143.781 256.808 143.809 256.342C143.836 255.876 143.725 255.414 143.496 255.046" stroke="#00770E" stroke-width="5" stroke-miterlimit="10"/>
<path d="M0.00292969 454.203L220.003 454.499" stroke="#00770E" stroke-width="5" stroke-miterlimit="10"/>
</svg>
