<svg width="335" height="459" viewBox="0 0 335 459" fill="none" xmlns="http://www.w3.org/2000/svg">
<path d="M235.513 24.4733C241.597 24.4491 247.667 25.0698 253.62 26.3251C256.704 26.9748 260.34 28.3187 260.93 31.4025C261.251 32.978 260.669 34.576 260.087 36.0694C258.972 38.9217 257.819 41.7595 256.63 44.582C255.681 46.8221 254.509 49.2411 252.261 50.1596C250.409 50.9063 248.326 50.436 246.362 50.0775C240.33 49.0017 234.144 49.1397 228.165 50.4833C222.187 51.827 216.536 54.3493 211.544 57.9029C206.565 61.5255 202.361 66.1086 199.182 71.382C196.003 76.6555 193.912 82.5125 193.033 88.6071C191.362 90.433 189.242 91.7897 186.885 92.5429C184.527 93.2961 182.013 93.4196 179.593 92.9006C174.709 91.7955 170.132 88.5323 168.863 83.619C168.624 64.1601 180.213 45.4777 196.722 35.136C208.259 27.908 221.856 24.5256 235.513 24.4733Z" stroke="#00770E" stroke-width="6.07" stroke-miterlimit="10"/>
<path d="M168.359 84.9414C149.514 87.9389 131.937 96.3167 117.741 109.067C103.665 121.761 93.1895 137.733 88.3359 156.057" stroke="#00770E" stroke-width="6.07" stroke-miterlimit="10"/>
<path d="M200.297 86.959C211.169 87.8177 215.978 90.0502 225.461 95.4862C234.944 100.922 244.598 111.914 249.355 121.71" stroke="#00770E" stroke-width="6.07" stroke-miterlimit="10"/>
<path d="M225.954 121.71C211.282 104.499 191.031 100.959 168.81 105.2C146.588 109.442 127.174 125.272 117.512 145.716C112.686 156.058 110.557 167.454 111.325 178.841C112.093 190.228 115.732 201.235 121.902 210.835" stroke="#00770E" stroke-width="6.07" stroke-miterlimit="10"/>
<path d="M143.375 91.7512C147.616 64.5865 151.382 37.3521 154.672 10.0479C156.091 5.77684 160.87 3.45439 165.373 3.0885C169.875 2.72262 174.415 4.29063 178.567 6.20216C176.73 23.0128 174.323 39.7462 171.346 56.4025" stroke="#00770E" stroke-width="6.07" stroke-miterlimit="10"/>
<path d="M102.79 9.41406C101.976 24.9005 108.255 39.8867 115.73 53.4691C123.204 67.0514 132.075 80.0364 137.242 94.6642" stroke="#00770E" stroke-width="6.07" stroke-miterlimit="10"/>
<path d="M84.4053 16.6191C84.6971 23.5209 85.905 30.3532 87.9969 36.9367C79.7714 31.9025 70.0238 29.9572 60.4961 31.4484" stroke="#00770E" stroke-width="6.07" stroke-miterlimit="10"/>
<path d="M207.302 133.886C195.4 123.074 177.076 119.945 162.254 126.195C150.434 131.183 141.1 141.876 138.158 154.39C135.216 166.905 138.905 180.809 147.865 189.971" stroke="#00770E" stroke-width="6.07" stroke-miterlimit="10"/>
<path d="M164.328 124.89C165.568 130.251 171.959 136.09 177.268 137.546C182.577 139.002 188.215 138.397 193.643 137.494C214.902 133.932 235.077 125.831 255.753 119.753C276.429 113.675 298.434 109.605 319.454 114.339" stroke="#00770E" stroke-width="6.07" stroke-miterlimit="10"/>
<path d="M140.929 146.924C145.924 150.911 152.443 156.96 155.243 162.702C158.043 168.444 158.849 175.396 156.288 181.227C152.719 189.351 143.923 193.518 136.538 198.438C127.996 204.136 124.972 207.242 119.469 215.911" stroke="#00770E" stroke-width="6.07" stroke-miterlimit="10"/>
<path d="M330.298 143.953L309.391 158.94C317.429 158.089 325.552 158.535 333.449 160.261" stroke="#00770E" stroke-width="6.07" stroke-miterlimit="10"/>
<path d="M332.548 172.402L314.844 171.215C322.03 176.907 326.767 185.133 328.083 194.206" stroke="#00770E" stroke-width="6.07" stroke-miterlimit="10"/>
<path d="M304.078 173.611C309.813 179.727 313.99 187.134 316.257 195.206" stroke="#00770E" stroke-width="6.07" stroke-miterlimit="10"/>
<path d="M304.264 197.551C304.032 194.907 303.786 192.204 302.643 189.815C301.501 187.426 299.254 185.38 296.603 185.26C293.16 185.096 290.293 188.247 289.501 191.614C288.71 194.982 289.449 198.477 290.062 201.874C291.204 208.206 291.883 214.739 290.674 221.064C289.464 227.388 284.14 236.222 278.727 239.679" stroke="#00770E" stroke-width="6.07" stroke-miterlimit="10"/>
<path d="M311.841 143.714C305.18 146.126 301.813 140.489 301.492 137.674C300.782 132.337 301.643 126.908 303.971 122.053C306.39 117.162 313.678 112.585 319.457 114.362" stroke="#00770E" stroke-width="6.07" stroke-miterlimit="10"/>
<path d="M55.2422 47.7422C64.2889 48.6165 73.007 51.5875 80.7049 56.4196C88.4028 61.2517 94.8686 67.8116 99.5885 75.5788" stroke="#00770E" stroke-width="6.07" stroke-miterlimit="10"/>
<path d="M111.482 115.466C117.06 104.729 119.547 92.7741 119.808 80.6776C119.868 77.6908 119.554 74.2336 117.157 72.4191C114.506 70.403 110.743 71.4035 107.592 72.4862C94.0392 77.1605 80.173 81.9992 69.0771 91.0715C61.906 97.0288 56.1771 104.532 52.3195 113.02C48.4619 121.507 46.5762 130.757 46.8035 140.077L46.9603 138.584" stroke="#00770E" stroke-width="6.07" stroke-miterlimit="10"/>
<path d="M291.042 165.591C215.305 200.089 274.428 230.031 282.298 244.427C290.355 259.167 286.248 277.357 281.38 293.433C271.792 325.123 259.868 356.409 241.932 384.239C223.996 412.068 199.654 436.425 169.681 450.508C163.536 453.398 156.771 455.899 150.073 454.749C143.256 453.592 139.238 452.27 137.842 445.535C133.765 406.43 157.876 361.845 168.726 349.323C172.833 344.574 178.269 340.669 180.524 334.815C182.428 329.865 181.733 324.361 181.584 319.067C181.42 313.415 181.853 307.12 186.437 303.506C196.339 292.94 198.385 292.963 200.446 278.298C201.663 269.666 199.803 260.945 199.198 252.246C197.451 227.388 206.374 202.09 222.764 183.318C239.154 164.546 263.019 154.145 287.413 149.06C292.483 147.999 294.022 146.364 309.306 144.512C319.454 142.75 322.06 126.427 320.223 119.162" stroke="#00770E" stroke-width="6.07" stroke-miterlimit="10"/>
<path d="M88.3163 156.057C69.8332 160.81 52.0922 168.083 35.5923 177.673C25.5866 183.49 15.7752 190.449 9.82404 200.38C4.16409 209.826 2.49867 221.243 3.17816 232.234C3.85765 243.225 5.35868 248.005 9.3311 258.279C10.7125 261.848 13.9533 268.315 16.5443 271.04C8.58452 294.143 13.0645 320.173 23.7721 342.17C34.5767 364.362 51.2058 383.119 68.1483 401.07C89.1826 423.358 106.827 461.552 146.305 453.995" stroke="#00770E" stroke-width="6.07" stroke-miterlimit="10"/>
<path d="M88.2759 155.795C95.8847 162.306 96.3924 175.455 89.3062 182.526C93.6072 182.101 97.617 186.671 96.6164 190.882C95.6158 195.093 89.993 197.386 86.3417 195.071C89.8885 197.543 92.7859 201.724 91.9496 205.965C91.1133 210.207 85.0275 212.902 82.1751 209.654C85.7368 213.223 85.468 219.846 81.63 223.094C77.792 226.343 71.1764 225.558 68.2643 221.467C71.4452 225.431 70.5042 232.025 66.2779 234.907C62.0516 237.789 55.5853 236.326 53.0241 231.92C52.4193 231.778 51.4563 240.985 47.678 243.307C45.7638 244.446 43.5652 245.017 41.3388 244.954C39.1124 244.89 36.9497 244.195 35.1034 242.949C28.106 248.825 22.7674 256.429 19.6172 265.006" stroke="#00770E" stroke-width="6.07" stroke-miterlimit="10"/>
<path d="M82.5625 222.155C92.2695 218.668 103.47 215.382 113.177 218.929C121.226 221.871 126.797 229.047 132.471 235.468C146.83 251.731 165.52 265.508 187.032 268.278C191.512 268.86 196.568 268.786 199.958 265.784" stroke="#00770E" stroke-width="6.07" stroke-miterlimit="10"/>
<path d="M189.966 138.33C188.285 148.403 189.99 158.748 194.812 167.75C199.991 176.974 207.984 184.3 217.623 188.657" stroke="#00770E" stroke-width="6.07" stroke-miterlimit="10"/>
<path d="M176.379 137.584C167.306 143.275 159.703 151.027 154.188 160.209" stroke="#00770E" stroke-width="6.07" stroke-miterlimit="10"/>
<path d="M157.625 176.463C162.344 185.826 170.968 191.92 180.586 196.101C190.203 200.283 202.479 201.328 212.544 198.393" stroke="#00770E" stroke-width="6.07" stroke-miterlimit="10"/>
<path d="M144.578 193.316C147.692 204.151 157.705 213.425 168.084 217.838C178.463 222.251 189.977 223.191 201.252 223.102" stroke="#00770E" stroke-width="6.07" stroke-miterlimit="10"/>
<path d="M284.715 113.346C277.995 118.864 273.201 128.362 273.566 137.061C273.585 140.014 274.398 142.907 275.918 145.439C277.531 147.888 281.78 149.725 284.715 149.71" stroke="#00770E" stroke-width="6.07" stroke-miterlimit="10"/>
<path d="M301.539 145.834C297.059 147.835 293.818 152.121 292.377 156.818C290.936 161.515 291.145 166.607 292.191 171.408C293.236 176.21 295.095 180.802 296.947 185.357" stroke="#00770E" stroke-width="6.07" stroke-miterlimit="10"/>
<path d="M263.999 156.057C262.123 158.21 261.157 161.007 261.304 163.859C261.467 166.688 262.231 169.45 263.544 171.961C268.196 181.549 279.224 189.046 289.678 190.95" stroke="#00770E" stroke-width="6.07" stroke-miterlimit="10"/>
<path d="M238.227 170.027C235.165 176.949 236.547 184.282 240.288 190.86C244.029 197.438 250.256 202.367 257.148 205.495C264.04 208.624 271.581 210.065 279.108 210.841C282.842 211.222 288.599 211.237 291.354 208.684" stroke="#00770E" stroke-width="6.07" stroke-miterlimit="10"/>
<path d="M76.816 225.148C71.4846 297.264 94.5725 372.725 137.388 431.005" stroke="#00770E" stroke-width="6.07" stroke-miterlimit="10"/>
<path d="M106.331 218.121C104.343 263.481 110.209 308.843 123.67 352.205" stroke="#00770E" stroke-width="6.07" stroke-miterlimit="10"/>
<path d="M143.475 247.855C138.934 288.951 143.068 330.542 155.609 369.94" stroke="#00770E" stroke-width="6.07" stroke-miterlimit="10"/>
<path d="M181.188 321.419C144.151 306.843 102.478 309.666 65.4499 324.286C51.3075 329.871 37.4188 337.502 28.1523 349.554L28.899 348.158" stroke="#00770E" stroke-width="6.07" stroke-miterlimit="10"/>
<path d="M192.636 296.092C163.815 282.866 131.69 278.587 100.411 283.809C69.1665 289.16 40.2435 303.757 17.3789 325.713" stroke="#00770E" stroke-width="6.07" stroke-miterlimit="10"/>
<path d="M143.473 247.856C119.351 244.568 94.7906 247.239 71.9397 255.636C49.1049 264.087 28.6896 278.006 12.4805 296.175" stroke="#00770E" stroke-width="6.07" stroke-miterlimit="10"/>
<path d="M31.1825 247.221C30.5337 276.669 35.3833 305.98 45.4819 333.651" stroke="#00770E" stroke-width="6.07" stroke-miterlimit="10"/>
<path d="M39.6484 366.915C68.553 343.229 103.282 334.448 140.937 329.281" stroke="#00770E" stroke-width="6.07" stroke-miterlimit="10"/>
<path d="M149.271 348.697C115.602 351.96 81.7245 366.058 54.7539 386.472" stroke="#00770E" stroke-width="6.07" stroke-miterlimit="10"/>
<path d="M67.3164 398.926C94.2383 383.738 122.497 371.054 151.738 361.031" stroke="#00770E" stroke-width="6.07" stroke-miterlimit="10"/>
<path d="M77.0664 411.456C100.289 408.932 126.035 401.622 146.778 390.885" stroke="#00770E" stroke-width="6.07" stroke-miterlimit="10"/>
<path d="M128.157 419.834C117.707 425.66 106.444 429.891 94.7422 432.386" stroke="#00770E" stroke-width="6.07" stroke-miterlimit="10"/>
<path d="M181.744 221.758C180.161 238.73 166.81 298.705 162.711 315.251" stroke="#00770E" stroke-width="6.07" stroke-miterlimit="10"/>
<path d="M199.422 237.23C203.626 254.404 216.962 271.227 232.948 278.746C248.935 286.266 269.215 286.826 285.112 279.12" stroke="#00770E" stroke-width="6.07" stroke-miterlimit="10"/>
<path d="M157.828 171.081C177.907 171.537 198.725 163.928 216.929 155.453C235.133 146.978 253.151 137.398 272.834 133.418" stroke="#00770E" stroke-width="6.07" stroke-miterlimit="10"/>
<path d="M181.749 196.572C176.941 205.324 168.309 213.41 160.05 219.063C151.792 224.715 142.421 230.845 136.156 238.641" stroke="#00770E" stroke-width="6.07" stroke-miterlimit="10"/>
<path d="M212.539 197.395C213.584 213.142 221.992 227.77 232.103 239.889C238.726 247.834 246.902 254.651 256.445 258.638C265.988 262.626 276.964 263.604 286.745 260.259" stroke="#00770E" stroke-width="6.07" stroke-miterlimit="10"/>
<path d="M200.352 282.682C221.169 301.282 252.008 307.913 278.635 299.505" stroke="#00770E" stroke-width="6.07" stroke-miterlimit="10"/>
<path d="M184.703 307.33C208.709 325.355 242.945 331.224 271.887 323.205" stroke="#00770E" stroke-width="6.07" stroke-miterlimit="10"/>
<path d="M181.492 331.262C206.32 342.589 235.097 347.256 262.307 345.165" stroke="#00770E" stroke-width="6.07" stroke-miterlimit="10"/>
<path d="M165.07 355.672C191.59 370.433 222.826 374.251 252.12 366.312" stroke="#00770E" stroke-width="6.07" stroke-miterlimit="10"/>
<path d="M150.984 382.902C172.123 392.608 195.136 397.553 218.396 397.388C224.817 397.343 231.157 397.179 236.033 393.005" stroke="#00770E" stroke-width="6.07" stroke-miterlimit="10"/>
<path d="M142.227 407.438C164.792 421.012 192.785 423.708 217.799 415.494" stroke="#00770E" stroke-width="6.07" stroke-miterlimit="10"/>
<path d="M138.094 425.666C153.64 435.806 175.69 440.279 193.797 436.209" stroke="#00770E" stroke-width="6.07" stroke-miterlimit="10"/>
<path d="M217.641 216.733C226.961 213.914 236.004 210.247 244.656 205.779" stroke="#00770E" stroke-width="6.07" stroke-miterlimit="10"/>
<path d="M258.287 218.182C252.784 227.194 243.637 234.788 234.326 239.791C224.749 244.822 214.03 247.279 203.219 246.922" stroke="#00770E" stroke-width="6.07" stroke-miterlimit="10"/>
<path d="M272.062 233.264C272.689 235.048 272.808 239.678 271.188 243.717C269.695 247.451 266.805 250.662 264.214 253.738C254.432 265.357 239.969 273.861 224.773 273.944" stroke="#00770E" stroke-width="6.07" stroke-miterlimit="10"/>
<path d="M224.03 273.414C225.486 274.869 226.582 276.644 227.23 278.598C227.878 280.552 228.061 282.63 227.764 284.667C227.445 286.821 226.655 288.879 225.451 290.693C224.247 292.508 222.658 294.035 220.797 295.165" stroke="#00770E" stroke-width="6.07" stroke-miterlimit="10"/>
<path d="M220.775 295.941C196.443 347.862 168.827 398.179 138.094 446.587" stroke="#00770E" stroke-width="6.07" stroke-miterlimit="10"/>
<path d="M248.635 303.102C248.635 319.984 192.506 410.103 152.805 454.964" stroke="#00770E" stroke-width="6.07" stroke-miterlimit="10"/>
<path d="M181.93 93.5293C181.93 96.2697 181.975 100.085 181.989 102.826C182.03 102.838 182.073 102.839 182.115 102.831C182.157 102.823 182.197 102.805 182.23 102.779C182.264 102.753 182.29 102.719 182.308 102.68C182.326 102.642 182.335 102.599 182.333 102.557" stroke="#00770E" stroke-width="6.07" stroke-miterlimit="10"/>
<path d="M196.828 126.032C199.568 119.222 202.623 112.42 207.349 106.812C212.076 101.204 218.707 96.3579 226.017 95.8203" stroke="#00770E" stroke-width="6.07" stroke-miterlimit="10"/>
<path d="M144.648 92.1777C148.079 92.9262 151.312 94.3958 154.131 96.4891C156.95 98.5824 159.292 101.252 161.001 104.319C164.361 110.464 166.429 119.477 163.988 126.033" stroke="#00770E" stroke-width="6.07" stroke-miterlimit="10"/>
<path d="M110.859 115.534C118.147 114.608 128.138 116.154 134.149 120.395C140.205 124.69 144.46 131.073 146.096 138.316" stroke="#00770E" stroke-width="6.07" stroke-miterlimit="10"/>
<path d="M137.158 156.931C124.464 146.238 108.462 144.483 91.7812 145.596" stroke="#00770E" stroke-width="6.07" stroke-miterlimit="10"/>
<path d="M96.0625 184.52C103.665 178.687 112.511 174.688 121.913 172.835C127.364 171.767 135.279 171.685 139.162 175.65" stroke="#00770E" stroke-width="6.07" stroke-miterlimit="10"/>
<path d="M248.29 121.709C244.101 127.309 242.466 135.612 243.9 142.452C244.641 145.88 246.096 149.115 248.168 151.945C250.24 154.775 252.884 157.137 255.929 158.879" stroke="#00770E" stroke-width="6.07" stroke-miterlimit="10"/>
<path d="M219.457 131.266C215.798 134.417 214.977 140.353 214.977 145.176C214.977 151.344 216.044 157.669 219.27 162.918C222.496 168.167 228.178 172.169 234.338 172.214" stroke="#00770E" stroke-width="6.07" stroke-miterlimit="10"/>
<path d="M213.561 28.0293C211.583 32.228 210.827 36.8992 211.379 41.5077C211.931 46.1163 213.769 50.4765 216.683 54.0892C217.041 53.9399 216.683 53.2603 216.362 53.4545" stroke="#00770E" stroke-width="6.07" stroke-miterlimit="10"/>
<path d="M179.676 51.252C179.519 53.4183 179.793 55.5942 180.483 57.6539C181.172 59.7136 182.263 61.6164 183.693 63.2516C185.139 64.8738 186.893 66.1928 188.853 67.1323C190.813 68.0719 192.939 68.6128 195.11 68.7245C197.484 68.8365 202.368 67.769 203.324 65.5886" stroke="#00770E" stroke-width="6.07" stroke-miterlimit="10"/>
<path d="M174.953 34.8834C174.572 32.718 172.474 31.3443 170.57 30.2392C168.624 29.1952 166.472 28.5932 164.267 28.4767C161.974 28.2026 159.649 28.4266 157.45 29.1337C155.285 29.9178 152.686 30.8066 151.812 32.9347" stroke="#00770E" stroke-width="6.07" stroke-miterlimit="10"/>
<path d="M171.6 66.6914C171.638 65.1233 169.487 63.6596 168.188 62.7785C166.838 61.9655 165.341 61.4278 163.783 61.1958C160.63 60.4715 157.362 60.3978 154.18 60.9792C151.029 61.6736 148.953 63.4132 147.266 66.1685" stroke="#00770E" stroke-width="6.07" stroke-miterlimit="10"/>
<path d="M88.9375 62.1139C89.2138 57.2753 92.1036 51.6154 95.964 48.6734C97.9079 47.2165 100.14 46.1914 102.513 45.6673C104.885 45.1432 107.341 45.1319 109.718 45.6341C110.532 45.8546 111.293 46.2354 111.958 46.7541" stroke="#00770E" stroke-width="6.07" stroke-miterlimit="10"/>
<path d="M69.9242 90.2812C66.3028 95.2468 64.8915 102.393 65.4441 108.515C65.9966 114.638 67.7513 122.083 73.2843 124.764C74.8151 125.51 78.0929 126.451 80.8184 125.809" stroke="#00770E" stroke-width="6.07" stroke-miterlimit="10"/>
<path d="M99.1641 74.8613C89.3152 88.3914 88.8596 106.88 93.4294 122.971C79.6379 125.726 77.9578 126.361 64.8235 131.386C51.6891 136.412 39.1748 143.654 29.6395 153.996C20.1042 164.338 10.524 174.732 14.3844 194.071" stroke="#00770E" stroke-width="6.07" stroke-miterlimit="10"/>
<path d="M64.3001 131.371C60.6339 135.769 57.871 142.25 57.7068 147.97C57.5678 153.742 59.3541 159.395 62.7841 164.039" stroke="#00770E" stroke-width="6.07" stroke-miterlimit="10"/>
<path d="M40.4692 144.482C37.2506 148.685 35.5241 153.839 35.5631 159.132C35.6408 164.427 37.4799 169.545 40.79 173.678" stroke="#00770E" stroke-width="6.07" stroke-miterlimit="10"/>
<path d="M87.4354 195.826C80.6479 191.114 71.9413 189.665 63.7501 190.726C55.5588 191.786 47.8157 195.206 40.752 199.477C25.2357 208.893 11.5412 221.333 3.48438 237.559" stroke="#00770E" stroke-width="6.07" stroke-miterlimit="10"/>
<path d="M40.7664 174.762C33.5309 183.789 21.6284 199.559 21.7628 211.133C21.8973 222.707 27.6542 234.116 35.0987 242.98" stroke="#00770E" stroke-width="6.07" stroke-miterlimit="10"/>
<path d="M69.0521 222.498C62.4828 214.635 58.5168 204.926 57.7022 194.713C56.9107 184.58 57.5531 172.746 62.8098 164.039" stroke="#00770E" stroke-width="6.07" stroke-miterlimit="10"/>
</svg>
