<svg width="507" height="493" viewBox="0 0 507 493" fill="none" xmlns="http://www.w3.org/2000/svg">
<path d="M109.676 163.262C123.526 158.761 159.995 143.253 172.633 138.729C286.213 97.8963 388.973 57.5996 502.553 16.7666C495.884 46.2662 488.795 76.2089 473.942 102.187C449.669 144.653 408.816 175.132 365.119 193.554C291.552 224.546 293.884 226.552 187.813 263.094" stroke="#FCD77C" stroke-width="6" stroke-miterlimit="10"/>
<path d="M57.9342 195.606C69.508 206.214 82.1517 215.592 95.6619 223.59L488.096 458.094C460.931 471.503 433.043 484.842 401.098 488.41C348.89 494.1 290.923 474.581 238.202 448.206C-1.1058 328.459 15.4263 305.372 21.2091 201.716L27.2483 126.393" stroke="#FCD77C" stroke-width="6" stroke-miterlimit="10"/>
<path d="M111.4 43.3506C106.06 54.4042 123.222 76.9778 123.852 93.8847C124.321 97.9947 123.506 102.149 121.52 105.778C119.579 108.244 117.098 110.23 114.268 111.584L86.1472 127.698C84.515 140.594 95.1711 151.182 104.801 159.297L126.72 177.719C130.254 180.453 133.392 183.663 136.047 187.257C141.853 195.886 141.34 206.053 139.824 216.011C137.982 228.3 135.93 234.363 133.948 246.606" stroke="#FCD77C" stroke-width="6" stroke-miterlimit="10"/>
<path d="M121.638 46.2893C119.663 38.2705 116.784 30.5019 113.057 23.1327C109.764 16.7979 104.743 11.526 98.5766 7.92815C73.9999 -5.27088 36.3888 9.67714 22.6314 33.3934C14.5636 47.3853 11.5789 63.7092 10.5762 79.4967C7.94136 120.493 4.0007 153.957 2.99805 186.511" stroke="#FCD77C" stroke-width="6" stroke-miterlimit="10"/>
<path d="M27.8778 327.807C26.5953 342.078 26.9217 356.747 31.1189 370.412C35.316 384.077 43.7104 396.647 55.6722 403.503C69.3363 411.315 85.7052 410.919 101.235 410.336C120.262 409.613 141.504 408.54 160.531 407.817" stroke="#FCD77C" stroke-width="6" stroke-miterlimit="10"/>
<path d="M213.228 435.591C188.278 427.755 159.947 431.09 134.158 434.634C117.229 436.966 100.114 439.298 84.235 445.921C65.8375 453.523 49.8883 466.396 34.6387 479.595" stroke="#FCD77C" stroke-width="6" stroke-miterlimit="10"/>
<path d="M48.7942 415.419C50.3565 422.158 51.9421 429.154 50.5897 435.94C49.2372 442.726 44.7136 449.023 40.1434 454.456C36.7432 458.798 32.7019 462.596 28.1582 465.72" stroke="#FCD77C" stroke-width="6" stroke-miterlimit="10"/>
</svg>
