<svg width="453" height="462" viewBox="0 0 453 462" fill="none" xmlns="http://www.w3.org/2000/svg">
<path d="M298.482 5.1875C278.158 41.3615 287.448 69.0055 240.565 115.369C250.793 122.247 254.717 124.79 264.069 132.824C275.7 121.65 286.882 113.066 287.82 112.624C288.991 112.073 315.736 110.553 325.204 103.551C334.672 96.5491 340.945 84.6848 339.596 72.9603" stroke="#00770E" stroke-width="7.62" stroke-miterlimit="10" stroke-linecap="square"/>
<path d="M296.815 118.066C302.592 126.022 308.345 134.226 311.261 143.609C314.176 152.992 313.859 163.895 308.12 171.874C300.622 182.288 291.697 185.196 279.43 184.552C265.286 183.777 239.006 178.108 225.064 175.619C170.552 165.919 142.342 154.946 99.7709 190.151C75.345 210.312 65.063 240.601 76.8417 270.835C84.1617 289.623 96.6928 302.434 114.442 310.234C101.942 312.235 82.9209 316.283 71.8711 319.718C110.898 350.968 133.649 388.002 146.824 436.234C152.802 433.063 175.964 433.807 175.949 457.171" stroke="#00770E" stroke-width="7.62" stroke-miterlimit="10" stroke-linecap="square"/>
<path d="M214.089 294.959C219.517 297.882 204.512 292.121 240.198 303.915C262.344 311.228 277.062 316.795 308.839 315.547" stroke="#00770E" stroke-width="7.62" stroke-miterlimit="10" stroke-linecap="square"/>
<path d="M310.472 25.9544L327.26 10.5469C327.089 27.7692 338.015 42.8515 348.196 56.7472C366.745 82.0031 384.587 108.081 396.855 136.911C409.122 165.742 415.55 197.728 410.479 228.645C405.408 259.562 387.767 289.168 360.409 304.459C355.098 307.331 349.447 309.527 343.59 310.996C325.585 353.978 316.272 381.561 302.307 426.001" stroke="#00770E" stroke-width="7.62" stroke-miterlimit="10" stroke-linecap="square"/>
<path d="M159.401 425.876C150.096 393.54 145.497 368.005 130.19 338.042C141.574 336.546 148.925 335.631 161.634 333.793C174.491 331.94 187.224 327.675 197.444 319.618C207.664 311.562 213.797 299.294 215.325 286.398C217.186 270.711 207.703 245.82 195.28 234.615" stroke="#00770E" stroke-width="7.62" stroke-miterlimit="10" stroke-linecap="square"/>
<path d="M174.104 332.227C190.714 366.651 206.326 401.53 220.94 436.863C227.663 433.917 239.621 433.467 245.087 438.414C250.554 443.362 254.121 450.185 251.903 457.188" stroke="#00770E" stroke-width="7.62" stroke-miterlimit="10" stroke-linecap="square"/>
<path d="M210.44 303.916C216.396 345.534 222.219 384.747 230.912 425.876" stroke="#00770E" stroke-width="7.62" stroke-miterlimit="10" stroke-linecap="square"/>
<path d="M317.832 265.857C310.375 323.36 298.994 380.286 283.768 436.235C307.55 431.381 313.312 449.674 313.343 457.172" stroke="#00770E" stroke-width="7.62" stroke-miterlimit="10" stroke-linecap="square"/>
<path d="M406.153 271.293C426.842 275.248 430.347 277.396 446.475 280.358C424.329 319.789 426.004 316.904 399.236 362.972" stroke="#00770E" stroke-width="7.62" stroke-miterlimit="10" stroke-linecap="square"/>
<path d="M363.588 304.598C380.229 305.505 390.821 303.318 410.16 301.209C395.218 330.753 388.766 342.043 377.274 373.099C386.983 372.851 409.881 371.603 413.719 392.555" stroke="#00770E" stroke-width="7.62" stroke-miterlimit="10" stroke-linecap="square"/>
<path d="M87.778 198.859C87.2972 191.841 84.6763 187.181 79.4421 182.466C74.208 177.752 66.2055 175.875 59.878 178.93C54.5043 181.52 51.0923 187.134 49.7043 192.935C48.3163 198.735 48.9677 204.783 49.0375 210.77C49.495 248.649 49.5647 269.578 50.8985 317.857" stroke="#00770E" stroke-width="7.62" stroke-miterlimit="10" stroke-linecap="square"/>
<path d="M5.12919 249.991C4.65618 232.707 2.60137 199.278 4.8191 177.961C6.40873 162.716 9.4716 147.153 17.9238 134.359C26.376 121.564 41.1868 112.034 56.4163 113.647C72.8166 115.384 85.7586 129.497 91.1789 145.068C96.5991 160.638 97.8861 173.216 97.7465 189.647" stroke="#00770E" stroke-width="7.62" stroke-miterlimit="10" stroke-linecap="square"/>
<path d="M28.2115 194.664C27.9324 235.7 28.824 268.33 30.088 305.318" stroke="#00770E" stroke-width="7.62" stroke-miterlimit="10" stroke-linecap="square"/>
</svg>
