<svg width="311" height="58" viewBox="0 0 311 58" fill="none" xmlns="http://www.w3.org/2000/svg">
<path d="M112.045 32.1044C111.832 29.02 110.425 26.1411 108.125 24.0827C107.68 23.7033 107.212 23.3529 106.723 23.0334C107.177 22.7737 107.615 22.4886 108.036 22.1795C108.917 21.5307 109.699 20.7579 110.36 19.8851C111.851 17.8746 112.62 15.4173 112.541 12.9129V0H0V44.3236H9.59577V28.3159H97.0745C97.7517 28.293 98.4266 28.4055 99.06 28.6467C99.6933 28.888 100.273 29.2531 100.764 29.7209C101.79 30.678 102.422 31.9846 102.538 33.3849L103.744 44.3414H113.268L112.045 32.1044ZM103.442 13.9801C103.451 15.0341 103.214 16.0757 102.75 17.0216C102.285 17.9537 101.549 18.7226 100.64 19.2271C99.5533 19.8195 98.3281 20.1081 97.0923 20.063H9.59577V7.89715H103.442V13.9801Z" fill="#EFBA43"/>
<path d="M123.255 42.4385C120.871 40.9241 118.941 38.7915 117.668 36.2666C116.392 33.7991 115.729 31.0596 115.734 28.2805C115.708 25.5231 116.315 22.7968 117.508 20.3122C118.692 17.8339 120.533 15.7296 122.829 14.2293C125.42 12.5945 128.443 11.7824 131.502 11.8993C134.619 11.779 137.702 12.5766 140.371 14.1937C142.618 15.6173 144.415 17.6531 145.55 20.0632C146.64 22.3766 147.203 24.9039 147.2 27.4624C147.2 28.4406 147.2 29.3832 147.075 30.3081H120.913V24.6699H138.473C138.359 22.9525 137.628 21.3348 136.416 20.1166C135.759 19.5086 134.987 19.0381 134.146 18.7327C133.306 18.4273 132.413 18.2931 131.52 18.338C130.087 18.2879 128.674 18.6857 127.476 19.4763C126.34 20.3078 125.475 21.4593 124.993 22.7845C124.385 24.4958 124.097 26.3045 124.142 28.1205C124.098 29.8286 124.419 31.5264 125.082 33.1006C125.657 34.433 126.598 35.5741 127.795 36.391C129.079 37.1982 130.574 37.601 132.088 37.5472C133.609 37.612 135.119 37.2551 136.451 36.5156C137.577 35.824 138.391 34.7207 138.721 33.4386H147.306C146.745 36.7441 144.918 39.6991 142.215 41.6737C139.272 43.7968 135.712 44.8848 132.088 44.7685C128.979 44.8773 125.907 44.067 123.255 42.4385Z" fill="#EFBA43"/>
<path d="M157.239 43.4522C155.383 42.6198 153.798 41.2827 152.662 39.5925C151.547 37.7701 150.935 35.683 150.889 33.5451H158.427C158.48 34.1992 158.665 34.8356 158.97 35.4163C159.275 35.997 159.693 36.5101 160.201 36.9246C161.331 37.7665 162.713 38.1991 164.121 38.1519C165.306 38.2096 166.481 37.9056 167.49 37.2802C167.89 37.0344 168.22 36.6889 168.446 36.2775C168.673 35.866 168.79 35.4027 168.785 34.9325C168.789 34.5974 168.722 34.2652 168.587 33.9584C168.453 33.6516 168.254 33.3773 168.005 33.1539C167.444 32.6749 166.784 32.3284 166.072 32.1401C165.327 31.9266 164.191 31.6776 162.666 31.3753C160.769 31.0926 158.9 30.6462 157.079 30.0413C155.586 29.5156 154.274 28.571 153.301 27.3199C152.128 25.7118 151.556 23.741 151.687 21.7528C151.656 19.9447 152.176 18.1702 153.177 16.6659C154.169 15.1066 155.593 13.8706 157.274 13.1086C159.128 12.2661 161.145 11.8469 163.18 11.8814C165.502 11.8214 167.811 12.2517 169.956 13.1442C171.785 13.8819 173.353 15.1485 174.462 16.7828C175.571 18.4172 176.169 20.3454 176.182 22.322H168.537C168.473 21.7298 168.292 21.1563 168.006 20.6343C167.72 20.1123 167.334 19.6522 166.87 19.2804C165.858 18.4933 164.602 18.0902 163.322 18.1422C162.262 18.0939 161.214 18.3799 160.325 18.9603C159.947 19.2197 159.641 19.5714 159.436 19.9822C159.231 20.3929 159.134 20.8493 159.154 21.3081C159.149 21.6452 159.217 21.9794 159.355 22.2868C159.493 22.5942 159.697 22.8673 159.952 23.0868C160.546 23.5587 161.236 23.8927 161.974 24.065C163.144 24.3428 164.329 24.5566 165.522 24.7054C167.434 24.9625 169.326 25.3607 171.18 25.897C172.688 26.3665 174.018 27.2845 174.993 28.5294C176.142 30.1345 176.7 32.0894 176.572 34.0609C176.634 36.0762 176.11 38.0663 175.064 39.7882C174.009 41.3676 172.517 42.604 170.772 43.3454C168.698 44.226 166.461 44.6564 164.209 44.6083C161.83 44.729 159.452 44.3346 157.239 43.4522Z" fill="#EFBA43"/>
<path d="M182.142 12.3971H191.01V15.7588C192.064 14.4901 193.418 13.5058 194.948 12.8952C196.605 12.2257 198.376 11.8874 200.162 11.8992C202.888 11.8269 205.577 12.5365 207.914 13.9446C210.125 15.3274 211.883 17.3314 212.969 19.7074C214.139 22.4412 214.743 25.3853 214.743 28.3605C214.743 31.3357 214.139 34.2797 212.969 37.0135C211.893 39.396 210.133 41.4024 207.914 42.7763C205.613 44.1616 202.969 44.8647 200.287 44.804C198.43 44.8197 196.589 44.4566 194.877 43.7367C193.358 43.1158 192.026 42.1109 191.01 40.8198V57.2188H182.142V12.3971ZM202.309 36.1064C203.49 35.3493 204.432 34.2694 205.022 32.9938C205.707 31.5632 206.047 29.9914 206.016 28.4049C206.131 26.0568 205.373 23.7495 203.887 21.9307C203.2 21.1279 202.34 20.4916 201.372 20.0696C200.405 19.6476 199.354 19.4507 198.3 19.4939C196.875 19.4474 195.467 19.8202 194.251 20.566C193.034 21.3119 192.062 22.3984 191.454 23.6916C190.779 25.1249 190.445 26.6956 190.478 28.2804C190.361 30.631 191.113 32.9423 192.589 34.7724C193.289 35.5788 194.161 36.2166 195.14 36.6384C196.12 37.0603 197.182 37.2554 198.247 37.2091C199.678 37.2406 201.088 36.8578 202.309 36.1064Z" fill="#EFBA43"/>
<path d="M225.827 42.4385C223.444 40.9241 221.513 38.7915 220.24 36.2666C218.965 33.7991 218.301 31.0596 218.306 28.2805C218.281 25.5231 218.887 22.7968 220.08 20.3122C221.268 17.8364 223.108 15.7331 225.401 14.2293C228 12.5972 231.028 11.7855 234.092 11.8993C237.209 11.779 240.292 12.5766 242.961 14.1937C245.208 15.6173 247.005 17.6531 248.14 20.0632C249.224 22.3778 249.781 24.9052 249.772 27.4624C249.772 28.4406 249.772 29.3832 249.648 30.3081H223.521V24.6699H241.063C240.954 22.9549 240.229 21.3375 239.023 20.1166C238.366 19.5086 237.595 19.0381 236.754 18.7327C235.914 18.4273 235.021 18.2931 234.128 18.338C232.703 18.2622 231.292 18.6556 230.11 19.4584C228.929 20.2611 228.041 21.4291 227.583 22.7845C226.975 24.4958 226.687 26.3045 226.732 28.1205C226.694 29.8299 227.021 31.5277 227.689 33.1006C228.254 34.4399 229.197 35.5839 230.403 36.391C231.686 37.1982 233.182 37.601 234.695 37.5472C236.211 37.6106 237.715 37.2536 239.041 36.5156C240.171 35.8246 240.991 34.722 241.329 33.4386H249.914C249.345 36.7414 247.52 39.6939 244.823 41.6737C241.88 43.7968 238.319 44.8848 234.695 44.7685C231.575 44.8844 228.49 44.0738 225.827 42.4385Z" fill="#EFBA43"/>
<path d="M261.532 42.6517C259.076 41.2773 257.068 39.2205 255.75 36.7288C254.421 34.1342 253.728 31.2594 253.728 28.3426C253.728 25.4258 254.421 22.5509 255.75 19.9563C257.073 17.4682 259.079 15.4127 261.532 14.0335C264.163 12.5779 267.13 11.8418 270.134 11.8991C272.754 11.8617 275.35 12.3957 277.744 13.4643C279.936 14.4404 281.846 15.958 283.295 17.8753C284.712 19.7551 285.539 22.0149 285.672 24.3674H276.803C276.529 22.9383 275.724 21.6669 274.551 20.8101C273.346 19.9016 271.872 19.4255 270.365 19.4583C268.958 19.4105 267.569 19.7932 266.385 20.5557C265.2 21.3182 264.274 22.4243 263.731 23.727C263.12 25.1778 262.818 26.741 262.844 28.3159C262.733 30.6295 263.45 32.9067 264.867 34.7367C265.555 35.5475 266.42 36.1889 267.395 36.6113C268.37 37.0338 269.429 37.2261 270.489 37.1735C271.983 37.2082 273.446 36.7523 274.657 35.8751C275.831 35.028 276.622 33.7487 276.857 32.3178H285.832C285.59 34.6387 284.691 36.8419 283.242 38.6676C281.736 40.5756 279.796 42.0942 277.584 43.0963C275.241 44.1899 272.683 44.7431 270.099 44.715C267.112 44.7953 264.157 44.0836 261.532 42.6517Z" fill="#EFBA43"/>
<path d="M299.328 42.9364C297.55 42.0698 296.078 40.6799 295.107 38.9522C294.075 37.0375 293.561 34.8851 293.617 32.7092V19.7963H287.498V12.3971H293.617V3.0238H302.486V12.3971H311V19.7963H302.486V32.2468C302.438 32.8632 302.513 33.483 302.708 34.0696C302.903 34.6562 303.214 35.1975 303.621 35.6617C304.062 36.0648 304.581 36.3736 305.145 36.5693C305.709 36.765 306.307 36.8435 306.902 36.8001H310.964V44.217H305.643C303.469 44.2743 301.31 43.8365 299.328 42.9364Z" fill="#EFBA43"/>
</svg>
