<svg width="163" height="37" viewBox="0 0 163 37" fill="none" xmlns="http://www.w3.org/2000/svg" role="img" aria-label="RESPECT">
<g clip-path="url(#respect-logo-clip)">
<path d="M64.6781 20.7423C64.5674 19.1763 63.8624 17.7162 62.713 16.6722C62.4956 16.4701 62.2607 16.2884 62.0112 16.1295C62.2412 16.0015 62.461 15.8554 62.6687 15.6924C63.1106 15.362 63.5037 14.9686 63.8359 14.5241C64.5848 13.5017 64.9703 12.2498 64.9293 10.9741V4.39417H46.3643V27.0057H51.1662V18.8052H57.1871C57.8763 18.7968 58.5406 19.0679 59.034 19.559C59.5394 20.0519 59.8496 20.7171 59.9057 21.4282L60.5041 27.0057H65.2765L64.6781 20.7423ZM60.3416 11.5168C60.3486 12.0552 60.2295 12.5875 59.9944 13.0695C59.7599 13.5429 59.392 13.934 58.938 14.1925C58.4025 14.4922 57.7974 14.638 57.1871 14.6146H51.1662V8.42655H60.3416V11.5168Z" fill="#21201F"/>
<path d="M78.3089 21.3226C78.1201 21.8978 77.7381 22.3864 77.2303 22.7019C76.5557 23.0899 75.7874 23.2754 75.014 23.2371C74.2665 23.2796 73.5244 23.0851 72.8895 22.6803C72.2546 22.2754 71.758 21.6801 71.468 20.9759C71.2693 20.5149 71.135 20.0278 71.069 19.5288H82.5937C82.638 19.0464 82.6602 18.564 82.6602 18.0213C82.6535 16.719 82.3713 15.4335 81.8328 14.2527C81.2613 13.0111 80.3507 11.9642 79.2102 11.2379C77.8781 10.4084 76.3373 9.99441 74.7776 10.047C73.2285 9.99197 71.6992 10.4149 70.3894 11.2605C69.2323 12.0304 68.3046 13.1098 67.7077 14.3809C67.1014 15.6614 66.7906 17.0666 66.799 18.4886C66.7987 19.9152 67.1331 21.3211 67.7742 22.5889C68.4165 23.8658 69.3803 24.9454 70.5667 25.7168C71.8966 26.5544 73.4368 26.9787 74.9992 26.9378C76.8317 26.9953 78.6315 26.4336 80.1188 25.3399C81.432 24.3649 82.3347 22.9188 82.6454 21.2925L78.3089 21.3226ZM71.431 15.6547C71.6573 14.9545 72.1034 14.3498 72.7003 13.9343C73.2972 13.5187 74.0117 13.3154 74.7333 13.3558C75.1835 13.3317 75.6338 13.3999 76.0576 13.5566C76.4815 13.7132 76.8702 13.9551 77.2007 14.2678C77.8178 14.8925 78.1885 15.7267 78.2424 16.6119H71.1577C71.2225 16.2839 71.3191 15.9633 71.4458 15.6547H71.431Z" fill="#21201F"/>
<path d="M96.7333 18.647C96.2371 18.0109 95.5655 17.541 94.8051 17.2978C93.8688 17.0185 92.9131 16.8119 91.9461 16.6798C91.3499 16.6039 90.7581 16.4957 90.1731 16.3557C89.8014 16.2649 89.4534 16.0926 89.1536 15.8507C89.0195 15.7315 88.9138 15.5826 88.8447 15.4154C88.7755 15.2482 88.7448 15.0671 88.7547 14.8859C88.7459 14.6504 88.7955 14.4165 88.8988 14.2057C89.0021 13.9949 89.1558 13.8141 89.3457 13.68C89.7958 13.3834 90.3248 13.236 90.8602 13.2579C91.5002 13.2371 92.1274 13.445 92.6332 13.8458C92.8698 14.0341 93.0664 14.2695 93.2112 14.5377C93.356 14.8059 93.4458 15.1013 93.4754 15.406H97.3391C97.3331 14.3896 97.0305 13.398 96.47 12.5577C95.9095 11.7174 95.1165 11.0664 94.192 10.6877C93.1069 10.2268 91.9391 10.0035 90.7641 10.032C89.745 10.0222 88.7362 10.2409 87.8091 10.6726C86.969 11.0584 86.2523 11.6774 85.7406 12.4589C85.2431 13.2384 84.9858 14.1519 85.0018 15.0819C84.9223 16.0017 85.1477 16.9221 85.642 17.6956C86.1363 18.4692 86.8708 19.051 87.7278 19.3479C88.6506 19.6565 89.597 19.8859 90.5573 20.0338C91.296 20.1845 91.8944 20.3127 92.2786 20.4182C92.6385 20.5167 92.9719 20.6971 93.2538 20.9458C93.3853 21.0622 93.4895 21.2073 93.5585 21.3704C93.6276 21.5335 93.6598 21.7104 93.6527 21.8879C93.6536 22.1296 93.5936 22.3674 93.4785 22.5786C93.3633 22.7898 93.1969 22.9672 92.9952 23.0939C92.4847 23.4183 91.8893 23.5761 91.2886 23.5461C90.5774 23.5701 89.8793 23.3468 89.3088 22.913C89.0393 22.7108 88.8141 22.4536 88.6475 22.1577C88.4809 21.8619 88.3765 21.5338 88.341 21.1945H84.5068C84.5397 22.2982 84.861 23.3729 85.4377 24.3074C86.0101 25.1771 86.8116 25.8642 87.75 26.2897C88.8607 26.7818 90.0633 27.021 91.2739 26.9906C92.4153 27.0184 93.5492 26.7947 94.5983 26.3349C95.4933 25.94 96.2523 25.2812 96.7776 24.443C97.3021 23.556 97.5591 22.531 97.5164 21.496C97.586 20.4825 97.3093 19.4757 96.7333 18.647Z" fill="#21201F"/>
<path d="M115.853 14.0191C115.307 12.8123 114.429 11.7935 113.326 11.0872C112.156 10.365 110.808 9.99894 109.44 10.032C108.543 10.029 107.655 10.2057 106.825 10.552C106.062 10.8665 105.385 11.3658 104.852 12.0067V10.032H100.42V32.6435H104.852V24.7747C105.361 25.4405 106.031 25.96 106.795 26.2821C107.651 26.6506 108.571 26.8378 109.499 26.8323C110.845 26.8607 112.17 26.5029 113.326 25.7997C114.435 25.0965 115.314 24.0735 115.853 22.8602C116.438 21.4668 116.739 19.9668 116.739 18.451C116.739 16.9352 116.438 15.4351 115.853 14.0417V14.0191ZM111.885 20.8026C111.586 21.447 111.115 21.9928 110.526 22.3779C109.915 22.7648 109.206 22.9613 108.487 22.9431C107.951 22.9666 107.417 22.8662 106.925 22.6496C106.432 22.4329 105.994 22.1056 105.643 21.692C104.904 20.7618 104.528 19.5863 104.587 18.3907C104.572 17.5841 104.739 16.7847 105.074 16.0542C105.377 15.3934 105.863 14.8378 106.473 14.456C107.082 14.0742 107.787 13.883 108.502 13.9061C109.034 13.8843 109.564 13.9863 110.052 14.2043C110.539 14.4224 110.972 14.7509 111.317 15.1648C112.06 16.0928 112.439 17.2692 112.38 18.4661C112.392 19.2707 112.222 20.0674 111.885 20.795V20.8026Z" fill="#21201F"/>
<path d="M130.214 21.3226C130.026 21.901 129.641 22.3909 129.128 22.702C128.452 23.0872 127.684 23.2726 126.911 23.2371C126.165 23.278 125.425 23.0828 124.791 22.6781C124.158 22.2733 123.662 21.6789 123.373 20.9759C123.175 20.5141 123.038 20.0274 122.966 19.5288H134.454C134.498 19.0464 134.521 18.564 134.521 18.0214C134.518 16.7186 134.235 15.4323 133.693 14.2528C133.122 13.0111 132.211 11.9643 131.071 11.2379C129.738 10.4096 128.198 9.99576 126.638 10.047C125.089 9.99106 123.559 10.414 122.25 11.2605C121.093 12.0305 120.165 13.1099 119.568 14.3809C118.962 15.6615 118.651 17.0666 118.659 18.4887C118.661 19.9141 118.992 21.3191 119.627 22.5889C120.302 23.9568 121.349 25.0981 122.641 25.8771C123.934 26.6561 125.418 27.04 126.919 26.9831C128.754 27.0417 130.556 26.4799 132.046 25.3852C133.359 24.4102 134.262 22.9641 134.572 21.3377L130.214 21.3226ZM123.373 15.6547C123.599 14.9545 124.045 14.3499 124.642 13.9343C125.239 13.5188 125.953 13.3155 126.675 13.3559C127.125 13.3326 127.575 13.4012 127.999 13.5578C128.423 13.7144 128.811 13.9558 129.142 14.2678C129.757 14.8945 130.127 15.7276 130.184 16.6119H123.099C123.159 16.2845 123.251 15.9638 123.373 15.6547Z" fill="#21201F"/>
<path d="M148.003 21.3227C147.801 21.7483 147.499 22.1161 147.124 22.3929C146.367 22.9172 145.45 23.1463 144.542 23.0384C143.633 22.9304 142.793 22.4927 142.174 21.805C141.46 20.8633 141.099 19.6929 141.154 18.5038C141.138 17.6911 141.292 16.8843 141.605 16.1371C141.88 15.4689 142.347 14.9016 142.944 14.5099C143.542 14.1183 144.242 13.9209 144.952 13.9438C145.716 13.9282 146.462 14.1751 147.072 14.6447C147.436 14.9165 147.734 15.2697 147.944 15.6773H152.583C152.418 14.7469 152.041 13.869 151.482 13.1147C150.744 12.1325 149.777 11.355 148.668 10.8535C147.461 10.2979 146.15 10.0175 144.826 10.032C143.303 10.0026 141.799 10.3848 140.467 11.1399C139.235 11.8429 138.223 12.8884 137.549 14.1548C136.88 15.4905 136.53 16.9695 136.53 18.4698C136.53 19.9702 136.88 21.4491 137.549 22.7849C138.223 24.0513 139.235 25.0968 140.467 25.7997C141.799 26.5548 143.303 26.9371 144.826 26.9077C146.131 26.9188 147.423 26.6357 148.609 26.0786C149.719 25.5628 150.696 24.7884 151.46 23.8175C152.041 23.077 152.448 22.2107 152.65 21.285L148.003 21.3227Z" fill="#21201F"/>
<path d="M163 14.4864V10.7179H158.73V4.39417H154.297V21.0664C154.268 22.1718 154.523 23.2657 155.036 24.2396C155.522 25.1232 156.262 25.8335 157.156 26.2746C158.158 26.7545 159.256 26.9919 160.362 26.968H162.985V23.1994H160.931C160.632 23.2213 160.332 23.1811 160.049 23.0814C159.766 22.9816 159.506 22.8244 159.284 22.6191C159.08 22.3821 158.925 22.106 158.827 21.8071C158.73 21.5081 158.691 21.1922 158.715 20.878V14.4864H163Z" fill="#21201F"/>
<path d="M24.1722 24.6692H19.0009C27.7626 20.1469 36.2436 12.5117 36.2436 0L0 6.16541V18.5038L12.0861 16.4461C12.0849 18.1692 11.4855 19.8361 10.3941 21.1511C9.30265 22.466 7.78991 23.344 6.12432 23.6291L0 24.6692V30.8346H6.04305C6.83664 30.8346 7.62246 30.9941 8.35563 31.3039C9.08881 31.6137 9.75499 32.0679 10.3161 32.6404C10.8773 33.2129 11.3224 33.8926 11.6261 34.6406C11.9298 35.3886 12.0861 36.1903 12.0861 37H36.2657C36.2638 33.729 34.9888 30.5926 32.721 28.2803C30.4533 25.9681 27.3783 24.6692 24.1722 24.6692Z" fill="#2C6B15"/>
</g>
<defs>
<clipPath id="respect-logo-clip">
<rect width="163" height="37" fill="white"/>
</clipPath>
</defs>
</svg>
