<svg width="165" height="48" viewBox="0 0 165 48" fill="none" xmlns="http://www.w3.org/2000/svg">
<g clip-path="url(#clip0_4013_760)">
<path d="M29.9878 47.9998V42.0209C23.6246 42.0209 17.522 39.4918 13.0225 34.99C8.52305 30.4882 5.99527 24.3825 5.99527 18.0159V12.0371H0.0195312V18.0159C0.0195312 25.9734 3.179 33.605 8.80288 39.2318C14.4268 44.8586 22.0544 48.0197 30.0078 48.0197L29.9878 47.9998Z" fill="#21201F"/>
<path d="M95.9499 48.0001H119.933V42.0212H101.946V11.9976H95.9698C96.0262 14.3972 95.6026 16.7838 94.7238 19.0172C93.845 21.2506 92.5287 23.2857 90.8524 25.0028C89.1761 26.7199 87.1736 28.0843 84.9627 29.0159C82.7517 29.9474 80.3769 30.4273 77.9779 30.4273C75.5789 30.4273 73.2041 29.9474 70.9931 29.0159C68.7821 28.0843 66.7796 26.7199 65.1033 25.0028C63.427 23.2857 62.1108 21.2506 61.232 19.0172C60.3531 16.7838 59.9295 14.3972 59.9859 11.9976H54.0102V42.0013H36.0332V47.9801H59.9361V27.8614C62.185 30.4191 64.9528 32.468 68.0552 33.8716C71.1576 35.2751 74.5233 36.001 77.9281 36.001C81.3329 36.001 84.6986 35.2751 87.801 33.8716C90.9034 32.468 93.6712 30.4191 95.92 27.8614V48.0001H95.9499Z" fill="#21201F"/>
<path d="M11.9912 17.9365C11.9912 20.3098 12.4586 22.6599 13.3666 24.8524C14.2747 27.0449 15.6056 29.0369 17.2834 30.7147C18.9612 32.3924 20.9529 33.7229 23.1448 34.6302C25.3367 35.5375 27.6858 36.0038 30.0578 36.0025C34.467 36.0128 38.724 34.3908 42.0093 31.4487V36.0025H47.9851V11.9976H11.9912V17.9365ZM41.9794 17.9963C41.9794 21.1796 40.7156 24.2324 38.4658 26.4833C36.2161 28.7342 33.1648 29.9988 29.9832 29.9988C26.8015 29.9988 23.7502 28.7342 21.5005 26.4833C19.2508 24.2324 17.9869 21.1796 17.9869 17.9963H41.9794Z" fill="#21201F"/>
<path d="M143.925 17.9363V11.9575H107.941V35.9625H113.917V31.4086C117.202 34.3507 121.46 35.9728 125.869 35.9625C130.651 35.9625 135.237 34.0646 138.623 30.6852C142.008 27.3058 143.915 22.7208 143.925 17.9363ZM113.937 17.9961H137.92C137.92 21.1781 136.656 24.2297 134.408 26.4797C132.159 28.7296 129.109 29.9936 125.928 29.9936C122.748 29.9936 119.698 28.7296 117.449 26.4797C115.2 24.2297 113.937 21.1781 113.937 17.9961Z" fill="#21201F"/>
<path d="M89.9445 42.0015H65.9619V48.0002H89.9445V42.0015Z" fill="#21201F"/>
<path d="M80.6914 23.6916C87.1369 22.1696 91.1288 15.7079 89.6075 9.25903C88.0863 2.81018 81.6279 -1.18378 75.1824 0.338292C68.7368 1.86036 64.745 8.32208 66.2662 14.7709C67.7875 21.2198 74.2459 25.2137 80.6914 23.6916Z" fill="#21201F"/>
<path d="M163.307 11.9378C159.841 11.9378 157.331 13.014 155.917 14.9272V12.0075H149.941V17.9864C149.941 18.7337 149.941 19.4711 149.832 20.1985C149.28 26.1588 146.523 31.6979 142.101 35.7296C137.679 39.7612 131.911 41.9945 125.929 41.9914V47.9702C131.563 47.9644 137.082 46.3727 141.855 43.3771C146.628 40.3815 150.462 36.1029 152.919 31.0302C154.27 28.2524 155.177 25.2801 155.608 22.2214C158.506 17.6874 160.588 17.9964 162.859 17.8768H165V11.8979L163.307 11.9378Z" fill="#21201F"/>
</g>
<defs>
<clipPath id="clip0_4013_760">
<rect width="165" height="48" fill="white"/>
</clipPath>
</defs>
</svg>
