<svg width="80" height="80" viewBox="0 0 80 80" fill="none" xmlns="http://www.w3.org/2000/svg">
<g clip-path="url(#clip0_4013_800)">
<path d="M62.8874 0H17.1066C12.5702 0.00162393 8.22002 1.80442 5.01227 5.01217C1.80453 8.21991 0.00169415 12.5701 7.02281e-05 17.1065V62.8689C-0.00637846 65.1195 0.431346 67.3493 1.28814 69.4304C2.14494 71.5115 3.40396 73.4031 4.99309 74.9968C6.58222 76.5905 8.47022 77.8549 10.5489 78.7177C12.6275 79.5804 14.856 80.0245 17.1066 80.0245H62.8874C65.1382 80.0253 67.3671 79.5818 69.4461 78.7193C71.5251 77.8568 73.4134 76.5924 75.0027 74.9986C76.592 73.4047 77.851 71.5128 78.7076 69.4313C79.5641 67.3498 80.0012 65.1198 79.9939 62.8689V17.1065C79.9939 12.5696 78.1917 8.21847 74.9836 5.01037C71.7755 1.80227 67.4243 0 62.8874 0ZM35.9716 10.4465C36.9136 9.39707 38.1934 8.71067 39.5887 8.50646C40.984 8.30224 42.4068 8.59311 43.6101 9.32856C44.8133 10.064 45.721 11.1976 46.1756 12.5325C46.6302 13.8675 46.6029 15.3194 46.0986 16.6363C45.5942 17.9533 44.6446 19.052 43.4146 19.7418C42.1846 20.4315 40.7519 20.6688 39.3652 20.4124C37.9785 20.1559 36.7254 19.422 35.8235 18.338C34.9215 17.2539 34.4276 15.8882 34.4276 14.478C34.3966 13.7363 34.5176 12.996 34.7831 12.3028C35.0486 11.6095 35.4531 10.9778 35.9716 10.4465ZM63.4082 34.2804C63.4014 34.4164 63.3495 34.5462 63.2608 34.6493C63.172 34.7525 63.0514 34.8232 62.918 34.8503L57.6366 35.6406C57.4995 35.6569 57.373 35.7225 57.2806 35.825C57.1882 35.9276 57.1362 36.0602 57.1342 36.1982V52.4531C57.1342 58.4208 55.1429 62.9609 51.1604 66.0734C47.1778 69.1859 41.1121 70.8034 32.9204 70.9198L16.5858 71.0056V60.3508L27.2284 60.3998L33.7781 60.2405C37.8383 60.122 40.9018 59.5093 42.9686 58.4024C43.936 57.9086 44.7399 57.1455 45.2835 56.2051C45.827 55.2648 46.087 54.1873 46.0321 53.1025V52.9616C45.0824 53.1822 44.1389 53.3537 43.2014 53.4885C41.0719 53.7564 38.9266 53.8792 36.7804 53.8562C30.3511 53.8562 25.3923 52.5062 21.904 49.8062C18.4055 47.1165 16.6471 43.2258 16.6471 38.165C16.6471 33.827 17.9889 30.4572 20.6603 28.1106C23.3316 25.7639 27.063 24.5569 31.8726 24.5569C34.347 24.4817 36.8103 24.9176 39.1086 25.8375C41.0303 26.6347 42.6602 28.0036 43.7774 29.7587C44.1997 30.4318 44.5431 31.1514 44.8006 31.9032C45.0856 32.7271 45.2907 33.5766 45.4133 34.4398C45.4298 34.5789 45.4971 34.7071 45.6022 34.7998C45.7073 34.8925 45.8429 34.9432 45.9831 34.9422C46.0155 34.9482 46.0487 34.9482 46.0811 34.9422C46.2059 34.9165 46.3196 34.8525 46.4064 34.7592C46.4931 34.6658 46.5486 34.5477 46.5651 34.4214L47.1778 25.525C47.1808 25.449 47.1993 25.3744 47.2322 25.3058C47.265 25.2372 47.3116 25.176 47.369 25.1261C47.4264 25.0761 47.4934 25.0385 47.5659 25.0154C47.6384 24.9924 47.7148 24.9844 47.7905 24.9919L62.9058 25.3718C63.0575 25.3871 63.198 25.4583 63.2999 25.5716C63.4019 25.6849 63.458 25.8321 63.4572 25.9845L63.4082 34.2804Z" fill="#21201F"/>
<path d="M43.1462 37.926C41.8959 36.7546 40.4693 35.787 38.9186 35.0585L38.7899 34.9973C37.332 34.3108 35.7751 33.858 34.1763 33.6555C32.5225 33.4848 30.8543 33.5136 29.2074 33.7412C27.9713 33.952 26.767 34.3185 25.623 34.8318C26.4274 36.3912 27.3598 37.8811 28.4108 39.2862C30.3672 41.5088 32.8921 43.1567 35.7142 44.053C38.2888 44.7978 40.9964 44.9631 43.6425 44.537C44.8 44.3625 45.9252 44.0177 46.9817 43.5138C46.8653 43.2258 46.7489 42.9501 46.608 42.6744C45.7766 40.8799 44.6004 39.2664 43.1462 37.926Z" fill="#21201F"/>
</g>
<defs>
<clipPath id="clip0_4013_800">
<rect width="80" height="80" fill="white"/>
</clipPath>
</defs>
</svg>
