<svg width="94" height="80" viewBox="0 0 94 80" fill="none" xmlns="http://www.w3.org/2000/svg">
<g clip-path="url(#clip0_4013_769)">
<path d="M87.0328 43.3458C87.0328 51.1 86.7594 58.8542 87.1109 66.5464C87.4624 74.0447 82.2133 80.6357 72.793 79.8913C66.4113 79.3873 61.5449 74.6185 61.5137 68.1205C61.4251 51.6247 61.4251 35.129 61.5137 18.6332C61.5137 11.7397 66.6534 7.00193 73.6757 6.86236C77.3157 6.76931 80.6198 7.48269 83.3069 10.0261C84.4655 11.0593 85.3941 12.3214 86.033 13.7314C86.6719 15.1414 87.0071 16.6684 87.0172 18.2145C87.0563 26.589 87.0172 34.9635 87.0172 43.3458H87.0328ZM68.6765 43.4079C68.6765 51.6971 68.6765 59.9863 68.6765 68.2756C68.6618 68.886 68.7711 69.493 68.998 70.0605C69.2249 70.6281 69.5646 71.1444 69.9969 71.5786C70.4293 72.0129 70.9454 72.3562 71.5144 72.588C72.0834 72.8199 72.6935 72.9355 73.3086 72.9281C73.8241 72.9281 74.3474 72.9281 74.8708 72.9281C77.9328 72.9281 79.8856 71.0283 79.9012 67.9964C79.9012 64.2822 79.9012 60.5601 79.9012 56.8459C79.9012 44.2841 79.9012 31.7223 79.9012 19.1605C79.9012 17.5166 79.5107 16.0588 78.1437 15.0896C75.98 13.5387 73.5351 13.6938 71.2386 14.5933C69.2077 15.3687 68.6297 17.1987 68.6453 19.3156C68.7 27.3412 68.6687 35.3745 68.6765 43.4389V43.4079Z" fill="#21201F"/>
<path d="M49.1014 27.0698C49.1014 24.4101 49.1014 21.983 49.1014 19.556C49.1014 15.6789 47.4142 13.9419 43.5008 14.0738C42.1424 14.13 40.8114 14.4709 39.5952 15.0741C39.0264 15.3995 38.5618 15.878 38.255 16.4542C37.9482 17.0304 37.8116 17.6809 37.8611 18.3308C37.8611 24.9064 37.8611 31.5129 37.8611 38.073C37.8611 38.1505 37.9158 38.2358 37.8611 38.1583C39.8998 37.9644 41.8995 37.6388 43.8992 37.6233C45.5186 37.5599 47.1337 37.8276 48.6445 38.4098C50.1553 38.992 51.5295 39.8763 52.6816 41.0077C53.8338 42.1391 54.7394 43.4935 55.3423 44.9869C55.9451 46.4802 56.2324 48.0806 56.1862 49.6888C56.2174 55.7991 56.2174 61.912 56.1862 68.0274C56.1862 74.9364 51.0542 79.8603 44.071 79.9999C40.1654 80.0697 36.6425 79.2245 33.9164 76.2934C31.8425 74.1892 30.6743 71.3667 30.6592 68.4229C30.6279 51.7876 30.6279 35.1574 30.6592 18.5324C30.6592 12.3291 35.9395 7.15703 42.2744 6.85462C46.2738 6.66076 49.9294 7.43618 52.7961 10.406C54.9425 12.5011 56.1715 15.3508 56.2174 18.3386C56.2174 20.9052 56.2565 23.4641 56.2174 26.0307C56.2174 26.3797 55.7565 27.0155 55.491 27.0233C53.4366 27.1086 51.3745 27.0698 49.1014 27.0698ZM37.8689 58.7224C37.8689 61.9249 37.8689 65.1274 37.8689 68.3299C37.8544 68.9305 37.96 69.528 38.1796 70.0878C38.3992 70.6476 38.7285 71.1587 39.1484 71.5913C39.5682 72.024 40.0704 72.3697 40.6258 72.6085C41.1811 72.8473 41.7787 72.9743 42.3838 72.9824C42.9462 72.9824 43.5086 72.9824 44.0632 72.9824C47.0939 72.9824 49.0467 71.1524 49.078 68.1515C49.1404 61.9482 49.1248 55.675 49.078 49.4406C49.078 47.2074 47.9376 45.4705 46.0941 44.951C45.0048 44.7122 43.8891 44.6132 42.7744 44.6563C39.6499 44.6563 37.8689 46.4243 37.8611 49.4872C37.8533 52.5501 37.8845 55.644 37.8845 58.7224H37.8689Z" fill="#21201F"/>
<path d="M7.13204 26.9303H0.101955C0.0377549 26.6052 -0.00400494 26.2762 -0.0230271 25.9455C-0.0230271 23.4642 0.0160289 20.9906 -0.0230271 18.5092C0.0222335 15.3578 1.32637 12.3532 3.60265 10.1561C5.87892 7.95896 8.94098 6.74914 12.1156 6.79264C15.1073 6.87018 17.9271 7.14157 20.4345 8.94055C23.3871 11.0729 25.2931 13.942 25.4103 17.5244C25.6212 23.7976 25.5352 30.094 25.4103 36.3749C25.3712 39.0268 24.0746 41.2755 22.2858 43.2451C23.0251 44.1337 23.6497 45.1105 24.1448 46.1529C24.8461 47.9743 25.2828 49.8855 25.4415 51.829C25.6055 57.1716 25.5196 62.5143 25.4806 67.8647C25.4415 74.8434 20.3408 79.7596 13.2795 79.8992C8.65524 79.9922 4.80431 78.6585 2.07039 74.8202C0.789892 73.1326 0.0668347 71.093 0.000429412 68.9813C0.000429412 66.244 -0.0620602 63.5068 0.000429412 60.7773C0.000429412 60.4284 0.46908 59.7925 0.73466 59.7848C2.78901 59.6995 4.85118 59.7383 7.10081 59.7383V65.1662C7.10081 66.2285 7.10081 67.2986 7.10081 68.3687C7.13122 69.4689 7.56839 70.5196 8.32901 71.3204C9.08963 72.1212 10.1205 72.6162 11.2251 72.711C11.6469 72.711 12.0843 72.7653 12.514 72.7731C16.7711 72.7731 18.3333 71.2222 18.3333 66.9807C18.3333 62.0645 18.3333 57.1484 18.3333 52.2477C18.3333 48.7118 16.8101 47.0912 13.2092 46.9361C12.9201 46.9361 12.6233 46.8818 12.2562 46.843V39.9496C12.967 39.8798 13.6778 39.8488 14.3808 39.7402C16.7242 39.3602 18.2864 37.8172 18.2864 35.4987C18.3645 29.7761 18.3645 24.0483 18.2864 18.3154C18.2953 17.7341 18.1849 17.1571 17.9618 16.6196C17.7387 16.0821 17.4077 15.5954 16.9889 15.189C16.5701 14.7827 16.0723 14.4654 15.5258 14.2563C14.9794 14.0472 14.3958 13.9508 13.8106 13.973C13.1232 13.973 12.4358 13.973 11.7485 13.973C11.1436 13.9573 10.5417 14.0631 9.97897 14.284C9.41627 14.5049 8.90435 14.8364 8.47392 15.2586C8.04349 15.6809 7.70345 16.1851 7.47421 16.741C7.24496 17.2969 7.13123 17.8931 7.13986 18.4937C7.13986 20.82 7.13986 23.1075 7.13986 25.4182L7.13204 26.9303Z" fill="#21201F"/>
<path d="M94.0004 4.61369C94.0862 5.26977 94.0302 5.93648 93.8359 6.56934C93.6416 7.2022 93.3136 7.78664 92.8738 8.28368C92.4339 8.78072 91.8923 9.17892 91.2851 9.4517C90.678 9.72449 90.0192 9.86559 89.3528 9.86559C88.6863 9.86559 88.0275 9.72449 87.4203 9.4517C86.8131 9.17892 86.2716 8.78072 85.8317 8.28368C85.3918 7.78664 85.0638 7.2022 84.8696 6.56934C84.6753 5.93648 84.6192 5.26977 84.7051 4.61369C84.6988 4.00098 84.8157 3.3932 85.0491 2.82592C85.2824 2.25864 85.6273 1.74327 86.0638 1.31C86.5002 0.876729 87.0194 0.534262 87.5908 0.302654C88.1623 0.0710462 88.7746 -0.0450459 89.3918 -0.0388251C90.6212 -0.0184817 91.7933 0.48066 92.6554 1.35098C93.5175 2.2213 94.0005 3.39308 94.0004 4.61369Z" fill="#21201F"/>
</g>
<defs>
<clipPath id="clip0_4013_769">
<rect width="94" height="80" fill="white"/>
</clipPath>
</defs>
</svg>
