<svg width="80" height="80" viewBox="0 0 80 80" fill="none" xmlns="http://www.w3.org/2000/svg">
<g clip-path="url(#clip0_4013_775)">
<path d="M33.2747 56.6484L31.5575 59.0278C31.5139 59.0875 31.4857 59.1571 31.4754 59.2304C31.4651 59.3036 31.4731 59.3783 31.4986 59.4477L34.1296 66.8142C34.1505 66.8712 34.1599 66.9319 34.1572 66.9925C34.1544 67.0532 34.1395 67.1128 34.1134 67.1677C34.0874 67.2225 34.0506 67.2717 34.0053 67.3122C33.9599 67.3527 33.907 67.3837 33.8496 67.4035C30.9385 68.3685 14.1867 73.4809 1.87167 67.8529C1.05361 67.5361 0.500839 67.2267 0.0881256 67.1162C0.0724528 67.1135 0.0563272 67.1154 0.041749 67.1218C0.0271709 67.1282 0.0148108 67.1387 0.00616815 67.152C-0.0024745 67.1654 -0.00699439 67.181 -0.0068317 67.1969C-0.00666901 67.2128 -0.00184622 67.2283 0.00706779 67.2414C0.265013 67.4919 1.00199 68.1033 1.28942 68.3096C3.21296 69.7829 9.17521 73.7166 16.3314 73.9081C25.0647 74.1365 34.1149 70.3501 34.1149 70.3501C34.1149 70.3501 36.2005 69.3483 35.8099 65.4072C35.3919 62.4421 34.6327 59.5352 33.5474 56.7442C33.5341 56.7196 33.5145 56.699 33.4905 56.6846C33.4665 56.6703 33.439 56.6627 33.411 56.6627C33.3831 56.6627 33.3556 56.6703 33.3316 56.6846C33.3076 56.699 33.2879 56.7196 33.2747 56.7442" fill="#21201F"/>
<path d="M18.8155 62.5269C19.2679 61.911 19.6673 61.258 20.0094 60.5747C20.087 60.4069 20.1037 60.2173 20.0567 60.0385C20.0096 59.8597 19.9017 59.7029 19.7515 59.595C19.0751 59.073 18.3314 58.6443 17.5405 58.3206C17.3932 58.2743 17.2355 58.2727 17.0873 58.316C16.939 58.3592 16.807 58.4454 16.7077 58.5637C16.2232 59.0973 15.8027 59.6857 15.4549 60.3169C15.383 60.4669 15.3614 60.636 15.3932 60.7992C15.4251 60.9624 15.5087 61.111 15.6317 61.223C16.2969 61.8759 17.0698 62.4092 17.9164 62.7994C18.0776 62.86 18.2542 62.8661 18.4192 62.8169C18.5842 62.7677 18.7286 62.6658 18.8303 62.5269" fill="#21201F"/>
<path d="M79.9628 61.4586C79.8228 60.2063 76.978 57.1934 75.3566 56.6483C73.7352 56.1032 70.3672 56.8472 67.4709 59.4549C65.4385 61.373 63.5927 63.4794 61.9582 65.7459C61.3689 65.5563 60.8252 65.2471 60.361 64.8376C59.8968 64.4282 59.5223 63.9274 59.2608 63.3665C58.9439 62.6298 58.5238 61.0608 58.3764 60.5672C58.3721 60.5499 58.3634 60.534 58.3512 60.5211C58.3389 60.5081 58.3234 60.4986 58.3063 60.4934C58.2892 60.4882 58.2711 60.4875 58.2537 60.4914C58.2363 60.4953 58.2202 60.5037 58.2069 60.5157C57.5952 61.0019 57.0425 61.4659 56.6076 61.8711C56.5437 61.9278 56.4972 62.0016 56.4737 62.0838C56.4502 62.166 56.4506 62.2532 56.475 62.3352C56.7021 63.1674 56.9752 63.9863 57.2931 64.7882C56.045 65.6495 54.5482 66.0766 53.0333 66.0037L50.5349 65.9448C50.5349 65.9448 49.3115 60.7882 46.7983 59.3149C46.6919 59.2556 46.5778 59.211 46.4594 59.1823C45.9001 59.0102 45.3056 58.9874 44.7348 59.116C43.6864 59.7955 42.8108 60.7098 42.1776 61.7865C41.5443 62.8632 41.1708 64.0725 41.0867 65.3186C40.8509 68.965 43.7251 69.0019 44.4474 69.1124C45.1696 69.2229 48.7661 69.2892 48.7661 69.2892V69.8048C48.7661 69.8048 45.4055 75.698 41.3963 77.0829C37.387 78.4678 35.1319 78.6151 34.9845 78.5562C34.8371 78.4973 34.9845 79.2928 34.9845 79.2928C34.9845 79.2928 39.5611 80.5967 42.9881 79.698C46.2088 78.8582 49.621 74.6004 50.358 69.4365C50.358 69.4365 57.4331 70.4236 57.7279 66.4899H57.9859C57.9859 66.4899 58.7228 68.523 60.1599 68.8103L58.9513 71.7569C58.933 71.8027 58.9311 71.8533 58.9459 71.9003C58.9606 71.9473 58.9912 71.9877 59.0324 72.0148C59.0709 72.0254 59.1117 72.0254 59.1503 72.0148C59.189 72.0244 59.2295 72.0244 59.2682 72.0148C60.2397 71.3075 60.9601 70.3088 61.3244 69.1639C64.5336 69.8473 67.8508 69.8473 71.06 69.1639C76.101 68.14 77.8108 67.2634 79.2774 64.9577C79.6083 64.4289 79.8149 63.8319 79.8817 63.2118C79.945 62.6488 79.945 62.0805 79.8817 61.5175M47.388 66.0626C46.3059 66.1461 45.2175 66.0491 44.1673 65.7753C42.4575 65.2523 42.627 64.2063 43.0913 63.396C43.2227 63.1598 43.4041 62.9552 43.6228 62.7964C43.8415 62.6376 44.0922 62.5285 44.3575 62.4766C44.6228 62.4247 44.8962 62.4313 45.1587 62.4959C45.4212 62.5605 45.6663 62.6817 45.8771 62.8508C46.704 63.5438 47.3555 64.4222 47.7785 65.4144C47.81 65.4821 47.8243 65.5566 47.8203 65.6312C47.8163 65.7057 47.794 65.7782 47.7555 65.8422C47.7169 65.9062 47.6632 65.9597 47.5992 65.9981C47.5351 66.0366 47.4626 66.0587 47.388 66.0626ZM77.7076 63.4844C76.8748 64.1326 73.0204 66.6298 63.5869 66.0479C63.5657 66.0476 63.545 66.0413 63.5273 66.0296C63.5096 66.0179 63.4956 66.0013 63.4871 65.9819C63.4785 65.9625 63.4757 65.941 63.4791 65.9201C63.4824 65.8991 63.4917 65.8795 63.5059 65.8637C64.1765 65.1271 66.9403 62.0847 69.5934 60.8472C72.5929 59.4475 74.3322 58.8656 77.7445 63.1676C77.7635 63.1906 77.7776 63.2171 77.786 63.2457C77.7945 63.2743 77.7971 63.3042 77.7936 63.3338C77.7902 63.3634 77.7808 63.392 77.766 63.4179C77.7512 63.4437 77.7313 63.4664 77.7076 63.4844Z" fill="#21201F"/>
<path d="M40.0035 39.7642C35.8199 39.7603 31.8088 38.0974 28.8505 35.1405C25.8922 32.1836 24.2285 28.1743 24.2246 23.9926V3.69057L39.8414 0.00732422L55.7751 3.69057V23.9926C55.7712 28.173 54.1085 32.1812 51.1518 35.1379C48.1951 38.0946 44.1859 39.7584 40.0035 39.7642ZM26.0597 5.14176V24C26.0597 27.6964 27.5288 31.2414 30.1438 33.8552C32.7587 36.4689 36.3054 37.9373 40.0035 37.9373C43.7017 37.9373 47.2483 36.4689 49.8633 33.8552C52.4783 31.2414 53.9473 27.6964 53.9473 24V5.14176L39.8414 1.87841L26.0597 5.14176Z" fill="#21201F"/>
<path d="M40.9171 0.942871H39.082V38.8508H40.9171V0.942871Z" fill="#21201F"/>
<path d="M54.8614 13.4146H25.1387V15.2488H54.8614V13.4146Z" fill="#21201F"/>
<path d="M54.7435 24.9355H25.1387V26.7698H54.7435V24.9355Z" fill="#21201F"/>
<path d="M14.8508 22.1289H19.4201C19.4201 22.1289 18.5946 37.326 36.2971 43.86C36.357 43.8832 36.4065 43.9274 36.4363 43.9843C36.4661 44.0412 36.4743 44.107 36.4592 44.1694C36.4442 44.2278 36.4097 44.2793 36.3615 44.3154C36.3133 44.3516 36.2542 44.3702 36.1939 44.3683C33.983 44.2431 16.0668 42.6151 14.8213 22.1289" fill="#21201F"/>
<path d="M65.1426 22.1289H60.5438C60.5438 22.1289 61.3693 37.326 43.6668 43.86C43.5994 43.8737 43.5401 43.9136 43.5021 43.9709C43.4641 44.0283 43.4505 44.0983 43.4642 44.1657C43.4779 44.2331 43.5177 44.2924 43.5751 44.3303C43.6325 44.3683 43.7026 44.382 43.77 44.3683C45.981 44.2431 63.8971 42.6151 65.1426 22.1289Z" fill="#21201F"/>
</g>
<defs>
<clipPath id="clip0_4013_775">
<rect width="80" height="80" fill="white"/>
</clipPath>
</defs>
</svg>
