<svg width="117" height="80" viewBox="0 0 117 80" fill="none" xmlns="http://www.w3.org/2000/svg">
<g clip-path="url(#clip0_4013_786)">
<path d="M29.9828 23.1844L43.549 32.2677L43.5982 31.7339V31.3396L43.6391 31.2329C43.6391 31.044 43.6801 30.8715 43.7128 30.6826C43.7456 30.4937 43.762 30.4198 43.7784 30.2966C43.8707 29.7674 44.0022 29.2459 44.1716 28.7362L31.4492 20.2196L31.1625 20.0225L30.7365 19.9568L10.3381 16.6717L3.21094 15.522C3.90727 17.4684 4.68552 19.3737 5.51292 21.2709L14.3522 21.9607L29.9828 23.1844Z" fill="#21201F"/>
<path d="M47.0472 53.9986L46.4083 52.9638C42.0582 45.8023 42.0418 35.5282 42.0418 35.4214V34.5262L29.5407 26.7077L17.146 25.6401L7.16797 24.7695C8.04453 26.5353 8.97022 28.2599 9.94509 29.96L20.4802 30.001L28.6313 30.0503L38.7896 36.3166C38.8797 39.0104 39.4613 47.0424 43.0085 53.6044L40.6492 56.2324C39.0108 52.6435 36.0288 45.2438 35.7339 38.9036L35.6929 38.0331L28.0661 33.048H22.7822H11.7555C12.8041 34.7726 13.9019 36.4726 15.0324 38.1152L25.6822 36.8997L27.6647 36.678L32.5062 39.963V40.2915C32.8402 43.3903 33.4964 46.4457 34.4641 49.4077C34.4641 49.5555 34.5461 49.7197 34.6034 49.8758C34.7672 50.3932 34.9393 50.8942 35.1031 51.3787C36.1452 54.298 37.371 57.1481 38.7732 59.9117L39.8628 62.0142L42.5498 59.0165L47.0472 53.9986Z" fill="#21201F"/>
<path d="M32.2361 17.4603L33.0554 18.0024C34.7757 19.1686 36.9384 20.5894 39.3305 22.1087L46.2938 26.7161V32.7114C46.2751 33.6016 46.3327 34.4919 46.4659 35.3723C46.5143 35.6933 46.5911 36.0093 46.6953 36.3167C46.7526 36.4728 46.8018 36.6124 46.8673 36.7602C46.9131 36.8342 46.9541 36.911 46.9902 36.9902C47.4611 36.338 47.9844 35.7255 48.5549 35.1587C48.6859 35.0191 48.8006 34.8877 48.9481 34.7481C49.0956 34.6085 49.4232 34.2389 49.7018 33.9268C49.6936 33.8394 49.6936 33.7514 49.7018 33.664V25.0571L48.391 24.1948L47.6947 23.7184L33.809 14.5448L33.637 14.4216H33.4814H33.3503L1.22075 4.68137L0.0820312 4.33643C0.61382 6.96527 1.28379 9.56411 2.08911 12.1221L7.63518 13.1158L32.2361 17.4603Z" fill="#21201F"/>
<path d="M53.9783 38.7473C54.8403 37.8748 55.7511 37.0522 56.7063 36.2835L57.1651 35.9222C57.9433 35.3308 58.8854 34.6492 59.9504 33.91C60.3928 33.5897 60.8761 33.2694 61.3677 32.9327C62.0558 32.4646 62.7849 31.9554 63.5467 31.4544C63.2869 31.08 62.9521 30.764 62.5637 30.5264C62.489 30.4679 62.4095 30.4157 62.3261 30.3704L62.0558 30.2061C61.5914 29.934 61.1097 29.6926 60.614 29.4834C59.4261 30.2636 58.2465 31.0602 57.0914 31.8897C56.6162 32.2346 56.1493 32.5714 55.6823 32.9327C54.8631 33.524 54.1176 34.1482 53.3803 34.8052C52.643 35.4622 51.8484 36.1932 51.1357 36.9487L50.7916 37.3183C50.1525 37.9573 49.579 38.6589 49.0795 39.4126C46.2778 43.5189 45.7289 49.0379 51.1029 51.7316L52.2498 52.2819C52.9625 51.7562 53.6261 51.2881 54.2814 50.8446C54.5518 50.6475 54.9368 50.4012 55.3628 50.1384C55.268 50.08 55.1695 50.0279 55.0679 49.9823L52.5038 48.7668C49.186 46.8615 49.9396 43.9295 51.8484 41.2522C52.4925 40.3631 53.2046 39.5256 53.9783 38.7473Z" fill="#21201F"/>
<path d="M47.8009 5.7078C48.0057 5.54355 48.2269 5.38751 48.4399 5.24789C48.8379 4.96382 49.2538 4.70594 49.6851 4.47589V3.09617H57.8772C63.792 3.09617 66.9951 4.96044 66.9951 9.73202C67.0588 11.1802 66.6786 12.6133 65.9055 13.8384C65.2869 14.7037 64.4341 15.3734 63.4479 15.7684C61.696 16.4295 59.8295 16.7312 57.9592 16.6553H53.6747L54.2236 16.9674C56.1826 17.9538 58.2319 18.7487 60.3431 19.3409L60.7609 19.4723C62.1427 19.3094 63.4976 18.9671 64.7914 18.4539C65.9275 17.99 66.9646 17.3126 67.847 16.4582C68.7146 15.5544 69.3877 14.4815 69.8245 13.3061C70.2614 12.1307 70.4527 10.8778 70.3866 9.62525C70.3866 3.11258 65.7089 -0.0493164 58.0247 -0.0493164H46.3018V7.06289C46.7631 6.57023 47.2645 6.11697 47.8009 5.7078Z" fill="#21201F"/>
<path d="M55.1737 58.031C56.1404 57.3082 57.0087 56.6841 57.8607 56.1174C57.8607 56.1174 58.1393 55.9532 58.5161 55.6986C59.2288 55.2469 60.3593 54.5406 60.9164 54.2285L61.6537 53.8261C62.7105 53.243 63.8 52.7091 64.9305 52.1835C65.1845 52.0603 65.4302 51.9536 65.6842 51.8468C66.5678 51.4904 67.3711 50.9599 68.0464 50.2867C68.7218 49.6135 69.2556 48.8113 69.6161 47.9276C69.9767 47.0438 70.1567 46.0965 70.1455 45.1418C70.1343 44.1871 69.9321 43.2443 69.5509 42.3693C69.4599 42.1112 69.3532 41.8589 69.2314 41.6138C68.9301 41.888 68.6098 42.1405 68.2729 42.3693C68.0026 42.55 67.7323 42.7307 67.4537 42.895C67.2221 43.0344 66.9812 43.1579 66.7328 43.2645L66.4543 43.3959C66.4815 43.4327 66.5011 43.4746 66.5116 43.5191C66.7851 44.1231 66.9085 44.7844 66.8714 45.4466C66.8343 46.1088 66.6378 46.7522 66.2986 47.3216C65.8272 47.9952 65.1735 48.5196 64.4144 48.8327C63.4969 49.227 62.604 49.654 61.711 50.1057C60.8181 50.5574 60.13 50.927 59.3517 51.3623L58.5735 51.8222C57.7543 52.2985 56.5254 53.0377 56.1158 53.3497L55.4277 53.8096C54.7395 54.2942 54.0268 54.8116 53.2732 55.3783C49.2282 58.4515 45.5842 62.0219 42.4268 66.0055C43.0657 66.9253 43.7375 67.8452 44.4748 68.7239C47.5551 64.7022 51.1526 61.1067 55.1737 58.031Z" fill="#21201F"/>
<path d="M69.4041 70.3417C69.2894 70.1446 66.7171 65.6523 59.5326 60.3386L58.6397 59.6816L57.6976 60.2565C56.2413 61.1773 54.8705 62.2273 53.6015 63.3938C53.3148 63.6402 53.0444 63.8948 52.7823 64.1494C50.8522 65.9885 49.1397 68.0443 47.6786 70.276L46.8594 71.4997C50.2049 75.0129 54.1571 77.89 58.525 79.9917H58.5905C62.918 77.9174 66.8344 75.0736 70.1496 71.5983L69.4041 70.3417ZM58.5086 76.337C55.7929 74.9497 53.3062 73.152 51.1357 71.007C53.17 68.1525 55.6613 65.655 58.5086 63.6155C61.2882 65.6897 63.7693 68.1382 65.8815 70.892C63.6873 73.0406 61.2059 74.8731 58.5086 76.337Z" fill="#21201F"/>
<path d="M49.6855 21.7063C50.6529 22.3638 51.6884 22.9145 52.7739 23.3489C54.4032 24.0265 56.0656 24.6213 57.7547 25.131C58.6804 25.4267 59.5242 25.7141 60.2779 26.0015L61.0971 26.3054L61.8344 26.6257L62.4406 26.9132C62.8584 27.1103 63.2598 27.3074 63.5793 27.4963C63.6749 27.5461 63.7679 27.601 63.8578 27.6605C64.0057 27.7412 64.1481 27.8317 64.2838 27.9315L64.3903 28.0054C64.5542 28.1204 64.6934 28.2272 64.8409 28.3504C64.972 28.4534 65.0978 28.5631 65.2178 28.6789C65.3079 28.7528 65.3979 28.8431 65.4799 28.9253C65.7151 29.1528 65.924 29.4063 66.1025 29.6808C66.184 29.802 66.2579 29.9282 66.3237 30.0586C66.7385 30.898 66.949 31.8239 66.9381 32.7606V32.9742C66.9599 33.9122 66.7463 34.8407 66.3169 35.6745C65.8875 36.5082 65.256 37.2204 64.4804 37.7457C64.0128 38.0793 63.5067 38.3551 62.9731 38.567C62.4661 38.7724 61.9426 38.9345 61.4084 39.0516C60.3725 39.297 59.3106 39.4156 58.2462 39.4047C58.0496 39.4047 57.8612 39.4047 57.6646 39.4047C57.1976 39.8071 56.6652 40.2999 56.1409 40.8255C55.6166 41.3511 55.3216 41.7125 54.9448 42.1313C55.1004 42.1313 55.2643 42.197 55.4282 42.2299C55.7476 42.2299 56.0589 42.3202 56.3784 42.3531C56.6979 42.3859 56.7798 42.3941 56.9765 42.3941C57.3533 42.3941 57.7219 42.4352 58.107 42.4352C58.492 42.4352 58.9262 42.4352 59.3276 42.3941L60.409 42.2956C60.753 42.2545 61.0971 42.197 61.4248 42.1313C61.5638 42.1139 61.7009 42.0836 61.8344 42.041C62.1113 41.9928 62.385 41.9269 62.6536 41.8439C62.9898 41.7626 63.3208 41.6611 63.6449 41.54C63.9725 41.4168 64.2838 41.2854 64.5869 41.154C64.6916 41.1159 64.793 41.0692 64.8901 41.0144C65.1377 40.9061 65.3784 40.7827 65.611 40.6448C65.9059 40.4806 66.1844 40.2999 66.4302 40.1192C67.2871 39.541 68.0404 38.8218 68.6584 37.9921C68.7201 37.8943 68.7885 37.801 68.8632 37.7129C69.0793 37.3895 69.2737 37.052 69.4449 36.7027C69.5104 36.5713 69.5759 36.4399 69.6333 36.3085C69.8838 35.7141 70.0705 35.0947 70.1903 34.4607L70.2395 34.1403V33.8447C70.2474 33.7792 70.2474 33.713 70.2395 33.6476C70.2562 33.3576 70.2562 33.067 70.2395 32.777C70.256 32.4542 70.256 32.1308 70.2395 31.8079C70.2428 31.7807 70.2428 31.7531 70.2395 31.7258C70.2294 31.5023 70.202 31.2799 70.1576 31.0606C70.1576 30.9456 70.1576 30.8388 70.1084 30.7321C70.0231 30.2443 69.8914 29.7658 69.7152 29.3031C69.6661 29.2045 69.6333 29.106 69.5841 29.0074C69.5337 28.8638 69.4678 28.7261 69.3875 28.5968C69.2542 28.3058 69.0894 28.0304 68.896 27.7755C68.5924 27.3302 68.2407 26.9199 67.8474 26.5518C67.7958 26.4884 67.7351 26.433 67.6672 26.3875C67.6175 26.3276 67.5596 26.2751 67.4951 26.2315C67.3833 26.1239 67.2657 26.0224 67.1429 25.9276C66.9463 25.7716 66.7415 25.6074 66.5121 25.4513C65.8852 25.021 65.2282 24.6367 64.546 24.3015C63.9725 24.0223 63.3499 23.7349 62.6782 23.4803C62.3669 23.3489 62.0474 23.2339 61.7115 23.1107C61.3756 22.9875 60.8186 22.7822 60.3434 22.6179L59.3112 22.2812C56.9952 21.617 54.7462 20.7372 52.5937 19.6531C51.3108 19.0506 50.314 17.9688 49.8165 16.6391C49.8092 16.6122 49.8092 16.5838 49.8165 16.5569C49.7028 16.1965 49.6286 15.8247 49.5953 15.4482C49.5576 15.1596 49.5412 14.8687 49.5462 14.5777C49.546 14.3305 49.5624 14.0835 49.5953 13.8385C49.7307 12.9512 50.0838 12.1115 50.6228 11.3948C51.1619 10.678 51.8701 10.1067 52.6838 9.73217C54.0723 9.06211 55.5998 8.73276 57.1403 8.7713C59.5464 8.6331 61.9126 9.43361 63.7432 11.0052C63.9042 11.1472 64.0573 11.298 64.2019 11.4568C64.3477 10.8743 64.4166 10.2752 64.4067 9.67468C64.4303 8.83999 64.2622 8.01106 63.9152 7.25194C60.7423 5.70243 57.1298 5.31036 53.6996 6.14322C53.355 6.22332 53.0158 6.3248 52.6838 6.44709C51.5716 6.82141 50.5282 7.37631 49.5953 8.08963C48.5494 8.86564 47.6984 9.87535 47.1097 11.0386C46.521 12.2019 46.2108 13.4868 46.2038 14.7912C46.1121 16.1509 46.3869 17.5104 46.9994 18.7271C47.612 19.9437 48.5398 20.9727 49.6855 21.7063Z" fill="#21201F"/>
<path d="M64.4475 55.8628C63.9888 56.0927 63.5628 56.3227 63.1368 56.5527C62.8746 56.6841 62.678 56.7908 62.4896 56.8976C62.3012 57.0043 61.7605 57.3247 61.3018 57.6121C65.5962 60.7544 69.415 64.5026 72.6397 68.7403C73.3606 67.8533 74.0405 66.9581 74.6713 66.0383C74.1798 65.4059 73.6719 64.7818 73.1476 64.1576C70.5304 61.1091 67.6159 58.3304 64.4475 55.8628Z" fill="#21201F"/>
<path d="M87.5087 26.7077L74.9747 34.5262V35.4214C74.9747 35.5282 74.9747 45.8023 70.6083 52.9638L69.9775 53.9986L74.4504 59.0001L77.162 62.0224L78.2516 59.9117C79.5454 57.3438 80.6834 54.7 81.6595 51.9947C81.6805 51.9079 81.7079 51.8228 81.7414 51.7401C81.9544 51.1816 82.151 50.5903 82.3476 49.999C82.3886 49.8594 82.4296 49.728 82.4705 49.5801C82.8474 48.4139 83.1914 47.1902 83.5027 45.9419C83.5027 45.7612 83.5764 45.5887 83.6174 45.4245C83.7157 45.0056 83.8058 44.6032 83.896 44.1762C83.9369 43.9544 83.9779 43.7409 84.0107 43.5192C84.1008 43.1085 84.1663 42.6979 84.2318 42.2626C84.2318 42.0901 84.2892 41.9095 84.3056 41.737C84.3957 41.1375 84.4612 40.5297 84.5022 39.9302L89.3519 36.6451L91.2934 36.8669L101.943 38.0659C103.074 36.4234 104.18 34.7808 105.22 33.0151H94.1935H88.9505L81.3154 38.0002L81.2663 38.8708C80.9714 45.211 77.9894 52.6106 76.351 56.1996L73.9835 53.5715C77.5388 47.0013 78.0795 38.9775 78.2106 36.2838L88.3607 30.0175H96.4791L107.014 29.96C107.981 28.2599 108.915 26.5353 109.783 24.7695L99.7969 25.6401L87.5087 26.7077Z" fill="#21201F"/>
<path d="M86.3125 19.9569L85.8864 20.0226L85.5997 20.2197L72.8691 28.7034C73.0424 29.2119 73.1739 29.7338 73.2623 30.2638C73.2928 30.3909 73.3147 30.5198 73.3279 30.6498C73.3279 30.8387 73.3853 31.0112 73.4098 31.2001V31.3069V31.7011C73.4098 31.8735 73.4098 32.0624 73.4508 32.2349L87.017 23.1516L102.582 21.9197L111.421 21.2299C112.241 19.3574 113.06 17.452 113.723 15.481L106.588 16.6307L86.3125 19.9569Z" fill="#21201F"/>
<path d="M115.87 4.59108L83.7729 14.3149L83.4288 14.4217C83.3714 14.4665 83.3112 14.5077 83.2486 14.5449L69.3711 23.7185L69.6169 23.9402L69.8135 24.1127C69.949 24.2194 70.075 24.3375 70.1903 24.4658C70.7074 24.9636 71.1714 25.5141 71.5748 26.1084C76.6457 22.8233 81.6757 19.5382 84.7723 17.4193L109.447 12.9762L114.993 11.9743C115.795 9.42212 116.459 6.82866 116.984 4.20508L115.87 4.59108Z" fill="#21201F"/>
</g>
<defs>
<clipPath id="clip0_4013_786">
<rect width="117" height="80" fill="white"/>
</clipPath>
</defs>
</svg>
